<svg xmlns="http://www.w3.org/2000/svg" viewBox="0 0 16 16"><defs><style>.cls-1{fill:#2e76ff;}.cls-2{fill:none;}</style></defs><g id="Layer_2" data-name="Layer 2"><g id="Layer_1-2" data-name="Layer 1"><g id="Layer_2-2" data-name="Layer 2"><g id="Layer_1-2-2" data-name="Layer 1-2"><g id="Group_261" data-name="Group 261"><path id="Path_159" data-name="Path 159" class="cls-1" d="M8,0h6.381a1.563,1.563,0,0,1,1.57,1.212A1.956,1.956,0,0,1,16,1.631V14.387A1.568,1.568,0,0,1,14.484,16H1.607A1.57,1.57,0,0,1,0,14.478V1.619A1.558,1.558,0,0,1,1.492,0Zm.606,13.332a6.932,6.932,0,0,0,1.212-.109,5.335,5.335,0,0,0,2.933-1.685c.073-.073.049-.115,0-.176-.424-.424-.848-.854-1.26-1.284-.091-.1-.14-.109-.243,0a3.793,3.793,0,0,1-2.284,1.115A2.916,2.916,0,0,1,6.176,9.921,3.547,3.547,0,0,1,5.57,7.5a3.17,3.17,0,0,1,.879-1.969A2.957,2.957,0,0,1,9.74,4.807a4.21,4.21,0,0,1,1.43.9c.06.055.1.091.175,0,.437-.515.885-1.03,1.328-1.545.054-.067.048-.1,0-.151A5.294,5.294,0,0,0,11.03,2.861a6.25,6.25,0,0,0-3.272-.375A4.975,4.975,0,0,0,4.97,3.758,5.412,5.412,0,0,0,3.389,9.594,5.194,5.194,0,0,0,8.606,13.333Z"/></g></g></g><rect class="cls-2" width="16" height="16"/></g></g></svg>