<svg xmlns="http://www.w3.org/2000/svg" viewBox="0 0 16 16"><defs><style>.cls-1{fill:#ef2300;}.cls-2{fill:none;}</style></defs><g id="Layer_2" data-name="Layer 2"><g id="Layer_1-2" data-name="Layer 1"><g id="WPl7H7.tif"><path class="cls-1" d="M9.966,0c.612.184,1.223.371,1.836.55q1.35.394,2.7.776a.217.217,0,0,1,.194.248q-.006,6.474,0,12.948a.216.216,0,0,1-.188.251c-1.472.4-2.941.809-4.413,1.208a.576.576,0,0,1-.329-.01Q5.7,14.482,1.634,12.981a.118.118,0,0,1-.073-.079l8.353,1.146V2.525c-.378.089-.745.174-1.112.262-1.446.345-2.891.7-4.339,1.031-.192.044-.237.12-.237.3.006,2.448,0,4.9.008,7.343A.305.305,0,0,1,4,11.81c-.892.334-1.776.688-2.695,1.047v-.263q0-4.53-.006-9.059a.357.357,0,0,1,.276-.408Q5.629,1.623,9.674.1c.069-.026.133-.066.2-.1Z"/></g><rect class="cls-2" width="16" height="16"/></g></g></svg>