<svg xmlns="http://www.w3.org/2000/svg" viewBox="0 0 1200 590"><defs><style>.cls-1{isolation:isolate;}.cls-2{fill:#f6f0eb;}.cls-3{fill:#fff;}.cls-16,.cls-34,.cls-4{fill:#ffd5ba;}.cls-5{fill:#ffd3bd;}.cls-6{fill:#ffab8e;}.cls-7{fill:#f9c1ac;}.cls-8{fill:#fff1e7;}.cls-9{fill:#f99d80;}.cls-10{fill:#ffad8c;}.cls-11,.cls-29{fill:#ffd1bd;}.cls-11{opacity:0.47;}.cls-11,.cls-16,.cls-34,.cls-42{mix-blend-mode:multiply;}.cls-12{fill:#ffe2d4;}.cls-13{fill:#fdd0bb;}.cls-14{fill:#fff5ee;}.cls-15{fill:#f94406;}.cls-16{opacity:0.5;}.cls-17{fill:#fdbea3;}.cls-18{fill:#fdae8d;}.cls-19{fill:#fee9dd;}.cls-20{fill:#ffb188;}.cls-21{fill:#ffa58d;}.cls-22{fill:#f87760;}.cls-23{fill:#fff1e9;}.cls-24{fill:#f77f63;}.cls-25{fill:#f15c43;}.cls-26{fill:#ff9173;}.cls-27{fill:#f96648;}.cls-28{fill:#ff8d76;}.cls-30{fill:#ffa88e;}.cls-31{fill:#fff0e9;opacity:0.49;mix-blend-mode:screen;}.cls-32{fill:#f7931e;}.cls-33{fill:#fff2eb;}.cls-35{fill:#ffe4cf;}.cls-36{fill:#ff9463;}.cls-37{fill:#ffe4d2;}.cls-38{fill:#f99e7f;}.cls-39{fill:#ffe3d4;}.cls-40{fill:#ffd6c2;}.cls-41{fill:#fdb699;}.cls-42{fill:#ffcdc0;}.cls-43{fill:#fdc5ac;}</style></defs><g class="cls-1"><g id="Layer_2" data-name="Layer 2"><g id="Layer_1-2" data-name="Layer 1"><path class="cls-2" d="M1200,10.664v577.9h-97.152c-.02.48-.029.96-.04,1.44H16.059c0-.48-.011-.96-.011-1.44H.09c-.11-34.769-.07-84.73-.07-125.5H0V89.423C28.8,79.49,57.025,79,72.194,80.671c70.2,7.741,89.072,27.286,137.519,63.595,36.557,27.4,61.5,42.85,89.962,58.093,23.408,12.553,39.467,17.964,57.185,20.1a123.151,123.151,0,0,0,22.078.74c22.558-1.27,41.487-8.8,59.836-17.934.25-.12.5-.25.75-.37,19.708-9.863,38.806-21.515,61.1-29.2.37-.13.741-.26,1.11-.38a151.2,151.2,0,0,1,29.558-6.852,234.747,234.747,0,0,1,91.712,6.852c.44.12.88.24,1.32.38a199.943,199.943,0,0,1,35.477,13.873A244.477,244.477,0,0,1,685.393,204.9c.19.12.37.24.55.37,12.009,8.142,23.418,16.864,35.327,25.106,2.72,1.89,5.5,3.761,8.309,5.591.191.12.38.25.57.37a230.843,230.843,0,0,0,23.678,13.533c.16.08.33.16.5.24a147.473,147.473,0,0,0,36.167,12.353,115.033,115.033,0,0,0,11.879,1.671c23.5,2.07,48.526-2.9,63.575-16.3,16.029-14.274,17.769-34.348,19.928-52.912a462.562,462.562,0,0,1,17.459-82.67c9.169-29.777,22.108-60.034,49.236-82.889,24.818-20.915,61.395-32.8,98.691-28.477,35.008,4.041,65.5,17.734,101.912,17.154,13.289-.21,26.088-.42,40.757-5.161C1196.031,12.2,1198.061,11.464,1200,10.664Z"/><path class="cls-3" d="M99.373,369.049l.164,5-2.516-.9c0-13-10.441-29.967-14.164-29.967l.175-2.32C89.883,340.869,99.373,355.29,99.373,369.049Z"/><path class="cls-3" d="M97.543,375.652,67,378.006s.1-2.092.31-4.962c.147-2,.36-4.373.637-6.687.025-.343.058-.687.1-1.03,1.3-10.644,9.922-20.993,14.424-22.775a.648.648,0,0,1,.091-.033,3.1,3.1,0,0,1,1.062-.237c.016.008.041.016.057.025.2.1.384.2.58.3a16.781,16.781,0,0,1,1.7,1.038,21.7,21.7,0,0,1,6.75,7.922C98.172,361.9,97.543,375.652,97.543,375.652Z"/><path class="cls-4" d="M97.542,375.647l-30.533,2.362V377.9l29.166-2.254s.636-13.742-4.819-24.079a21.9,21.9,0,0,0-6.761-7.926,17.162,17.162,0,0,0-1.69-1.032c-.085-.048-.157-.084-.24-.132a2.717,2.717,0,0,1,.959-.192.092.092,0,0,1,.06.024c.192.1.383.192.575.3a15.938,15.938,0,0,1,1.7,1.032,21.74,21.74,0,0,1,6.749,7.926C98.177,361.905,97.542,375.647,97.542,375.647Z"/><ellipse class="cls-5" cx="85.053" cy="354.725" rx="1.84" ry="2.554"/><path class="cls-6" d="M86.9,354.634c.032,1.406-.76,2.592-1.774,2.641a1.239,1.239,0,0,1-.457-.057,2.531,2.531,0,0,0,1.454-2.584,2.473,2.473,0,0,0-1.454-2.4,1.417,1.417,0,0,1,.319-.057C86,352.125,86.854,353.22,86.9,354.634Z"/><path class="cls-7" d="M84.607,341.211V342.5c-.009.212-.156.221-.328.294-.62.262-1.217.548-1.806.867A21.85,21.85,0,0,0,75.74,349.4a29.147,29.147,0,0,0-4.111,7.2,41.2,41.2,0,0,0-2.141,7.1,46.2,46.2,0,0,0-.8,5.4c-.049.531-.082,1.054-.106,1.578-.008.139-.017.278-.017.425a.717.717,0,0,1,0,.139c-.008,0-6.668,2.738-11.947,4.594V350.032c1.168-2.33,3.767-4.823,7.1-6.736.123-.066.245-.131.376-.188a8.061,8.061,0,0,1,1.079-.393c.441-.13.891-.237,1.348-.335.515-.114,1.038-.2,1.569-.286.581-.1,1.161-.172,1.741-.245.613-.074,10.616-1.5,14.661-.834C84.59,341.031,84.607,341.138,84.607,341.211Z"/><path class="cls-8" d="M84.607,341.211V342.5c-.009.212-.156.221-.328.294-.62.262-1.217.548-1.806.867A21.85,21.85,0,0,0,75.74,349.4a29.147,29.147,0,0,0-4.111,7.2,41.2,41.2,0,0,0-2.141,7.1,46.2,46.2,0,0,0-.8,5.4c-.049.531-.082,1.054-.106,1.578-.008.139-.017.278-.017.425a.717.717,0,0,1,0,.139s-.515.09-1.038.163a2.8,2.8,0,0,1-1.038.057v-.049c.009-1.267.058-2.477.148-3.646.089-1.2.228-2.346.408-3.449,2.485-15.68,12.7-21.165,15.217-22.53.572-.311,1.152-.589,1.749-.842.172.016.327.041.482.065C84.59,341.031,84.607,341.138,84.607,341.211Z"/><path class="cls-5" d="M87.483,370.007l-4.626-.706v-5.743a1.534,1.534,0,0,1,1.534-1.535h1.558a1.534,1.534,0,0,1,1.534,1.535Z"/><path class="cls-6" d="M87.483,363.561V371.7h-.931v-8.137a1.536,1.536,0,0,0-1.537-1.537h.932A1.535,1.535,0,0,1,87.483,363.561Z"/><path class="cls-9" d="M67.044,348.62c-3.8.552-4.31-.439-4.321-.509-.179-1.124,3.98-2.688,5.233-2.683a4.878,4.878,0,0,1,2.779.824,3.44,3.44,0,0,1,.542.484C71.557,347.06,70.769,348.079,67.044,348.62Z"/><path class="cls-5" d="M71.446,340.018v6.791a7.7,7.7,0,0,1-1.638.465,4.371,4.371,0,0,1-.81.081h-.061c-.1,0-.212-.01-.314-.02s-.212-.031-.313-.051a3.915,3.915,0,0,1-.577-.142,1.539,1.539,0,0,1-.192-.07c-.121-.041-.242-.092-.364-.142-.061-.031-.121-.051-.182-.081-.02-.01-.051-.03-.071-.04v-6.791a.432.432,0,0,1,.435-.435h3.652A.432.432,0,0,1,71.446,340.018Z"/><path class="cls-10" d="M71.446,346.809a7.7,7.7,0,0,1-1.638.465,4.371,4.371,0,0,1-.81.081h-.061c-.1,0-.212-.01-.314-.02s-.212-.031-.313-.051a3.915,3.915,0,0,1-.577-.142,1.539,1.539,0,0,1-.192-.07c-.121-.041-.242-.092-.364-.142-.061-.031-.121-.051-.182-.081-.02-.01-.051-.03-.071-.04v-6.791a.432.432,0,0,1,.435-.435h1.558l.02,6.2C68.907,346.97,71.234,346.758,71.446,346.809Z"/><path class="cls-3" d="M68.937,336.259a1.123,1.123,0,0,1,.237-1.461,7.348,7.348,0,0,1,1.39-.846,3.96,3.96,0,0,0,1.832-3.826c-.436-3.244-4.554-4.707-5.747-7.756a4.852,4.852,0,0,1,.554-4.5,2.792,2.792,0,0,1,2.743-1.311c1.046.25,1.66,1.777.839,2.474Z"/><path class="cls-3" d="M69.315,317.815c-.139-.161-.26-.068-.328.06s-.108.3-.239.338a1.55,1.55,0,0,0-1.074,1.057,16.9,16.9,0,0,0-.37,1.8,3.387,3.387,0,0,0,.324,1.962,5.118,5.118,0,0,0,1.7,1.837,25.4,25.4,0,0,0,2.441,1.4c1.068.6,1.224,2.128,1.5,3.3a4.9,4.9,0,0,1-.033,2.685,6.568,6.568,0,0,1-1.328,2.472,2.675,2.675,0,0,1-.831.626,5.487,5.487,0,0,1-.686.265,1.336,1.336,0,0,0-.308.133.038.038,0,0,0,.006.035c.055.034-.037-.014-.166-.037a.918.918,0,0,0-.339,0,.261.261,0,0,0-.088.028l.005,0,0,0-.181.151a2.01,2.01,0,0,1-.736.515.3.3,0,0,1-.366-.177,2.164,2.164,0,0,1,.941-2.41,4.7,4.7,0,0,0,1.5-1.453,3.6,3.6,0,0,0,.5-1.611,2.123,2.123,0,0,0-.366-1.733,14.508,14.508,0,0,0-2.162-1.836,6.882,6.882,0,0,1-2.663-2.559,9,9,0,0,1-.92-2.836,6.4,6.4,0,0,1,.3-2.894,7.443,7.443,0,0,1,.91-1.86,3.344,3.344,0,0,1,1.75-1.3,4.777,4.777,0,0,1,1.577-.216,2.61,2.61,0,0,1,1.617.636,2.454,2.454,0,0,1,.809,1.448,1.772,1.772,0,0,1-.575,1.657c-.28.2-.729-.339-1.162-.846l-.213-.25.006.009a.24.24,0,0,0,.036.035.891.891,0,0,0-.472-.051.325.325,0,0,0,0-.163c-.012-.094-.048-.058,0-.181-.079.043-.183-.059-.331-.039Z"/><path class="cls-3" d="M62.72,367.352h-3.6c0-19.068-15.17-37.934-20.632-37.934l.258-3.4C48.8,326.015,62.72,347.169,62.72,367.352Z"/><path class="cls-3" d="M60.035,377.038l-44.8,3.454s.144-3.07.456-7.279c.216-2.938.527-6.416.934-9.809q.056-.756.144-1.511C18.677,346.28,31.325,331.1,37.93,328.484a.911.911,0,0,1,.132-.048,4.553,4.553,0,0,1,1.558-.348c.024.012.06.024.084.036.288.144.564.288.851.444a24.562,24.562,0,0,1,2.494,1.523,31.85,31.85,0,0,1,9.9,11.62C60.958,356.868,60.035,377.038,60.035,377.038Z"/><path class="cls-4" d="M60.035,377.038l-.743.06c.084-3.358.12-21.105-7.1-34.764a31.843,31.843,0,0,0-9.9-11.619,24.6,24.6,0,0,0-2.494-1.523c-.287-.156-.563-.3-.851-.444-.024-.012-.06-.024-.084-.036a4.559,4.559,0,0,0-1.559.348.949.949,0,0,0-.131.048,15.255,15.255,0,0,0-3.477,2.1,16.254,16.254,0,0,1,4.232-2.722.911.911,0,0,1,.132-.048,4.553,4.553,0,0,1,1.558-.348c.024.012.06.024.084.036.288.144.564.288.851.444a24.562,24.562,0,0,1,2.494,1.523,31.85,31.85,0,0,1,9.9,11.62C60.958,356.868,60.035,377.038,60.035,377.038Z"/><ellipse class="cls-5" cx="41.714" cy="346.34" rx="2.698" ry="3.747"/><path class="cls-6" d="M44.415,346.208c.048,2.062-1.115,3.8-2.6,3.873a1.813,1.813,0,0,1-.671-.084c1.258-.372,2.181-1.955,2.133-3.789a3.629,3.629,0,0,0-2.133-3.526,2.114,2.114,0,0,1,.467-.084C43.109,342.526,44.356,344.133,44.415,346.208Z"/><path class="cls-7" d="M41.057,326.518v1.891a.4.4,0,0,1-.02.12.2.2,0,0,1-.04.09.336.336,0,0,1-.141.12h-.01c-.079.04-.17.07-.269.11-.261.11-.52.22-.77.35q-.33.135-.66.3a1.976,1.976,0,0,0-.2.1c-.339.16-.679.34-1.019.52a31.981,31.981,0,0,0-9.88,8.412,43.086,43.086,0,0,0-6.029,10.563,61.8,61.8,0,0,0-3.14,10.412c-.12.57-.23,1.15-.33,1.72-.06.29-.11.58-.15.881-.08.43-.15.86-.21,1.3s-.14.9-.189,1.36c-.071.54-.13,1.08-.19,1.631v.03c-.04.33-.071.67-.1,1-.07.78-.12,1.55-.16,2.32-.009.2-.02.41-.02.621a1.336,1.336,0,0,1,0,.21.077.077,0,0,0-.029.01c-.13.06-.73.3-1.66.67C12.7,372.529,5.79,375.28,0,377.31V339.461c1.72-3.421,5.529-7.081,10.419-9.882a5.682,5.682,0,0,1,.55-.28,10.6,10.6,0,0,1,1.58-.57c.65-.2,1.31-.35,1.98-.5l.59-.12q.839-.165,1.71-.3.613-.1,1.23-.179c.439-.071.889-.121,1.329-.18.2-.02,1.07-.141,2.37-.311,3.96-.49,11.919-1.38,16.989-1.12.09,0,.179.01.27.01h.04c.22.02.44.04.639.05a.2.2,0,0,0,.071.01c.14.01.279.03.42.05.25.02.48.06.7.09a.2.2,0,0,1,.111.06.159.159,0,0,1,.029.07A.3.3,0,0,1,41.057,326.518Z"/><path class="cls-11" d="M14.919,370.569c-.15.03-.29.07-.44.11A79.729,79.729,0,0,0,0,375.63v-5.351c.2-.08.4-.151.6-.231,1.28-.52,2.57-.99,3.889-1.4.181-.06.35-.12.531-.17,1.5-.45,3.009-.84,4.539-1.16s3.08-.58,4.63-.76c.04-.01.29-.03.44-.05.06-.01.1-.02.1-.02,0,.11-.01.22,0,.33A24.562,24.562,0,0,0,14.919,370.569Z"/><path class="cls-12" d="M41.059,326.517v1.895c-.012.312-.228.324-.48.432-.911.384-1.786.8-2.649,1.271a32.062,32.062,0,0,0-9.878,8.418,42.705,42.705,0,0,0-6.03,10.565,60.465,60.465,0,0,0-3.14,10.408,67.9,67.9,0,0,0-1.175,7.927c-.072.779-.12,1.547-.156,2.314-.012.2-.024.408-.024.624a1.158,1.158,0,0,1,0,.2s-.756.131-1.523.24a4.149,4.149,0,0,1-1.522.083v-.071c.012-1.859.084-3.634.216-5.349.131-1.763.335-3.441.6-5.06,3.644-23,18.629-31.047,22.321-33.049.839-.456,1.69-.864,2.566-1.235.252.024.479.06.707.1C41.035,326.254,41.059,326.41,41.059,326.517Z"/><path class="cls-5" d="M40.374,357.046H43.4a1.882,1.882,0,0,1,1.882,1.882v8.794a0,0,0,0,1,0,0H38.492a0,0,0,0,1,0,0v-8.794A1.882,1.882,0,0,1,40.374,357.046Z"/><path class="cls-6" d="M45.279,359.3v8.419H43.912V359.3a2.251,2.251,0,0,0-2.254-2.254h1.367A2.252,2.252,0,0,1,45.279,359.3Z"/><path class="cls-9" d="M15.3,337.386c-5.57.809-6.322-.645-6.339-.748C8.7,334.99,14.8,332.7,16.635,332.7a7.167,7.167,0,0,1,4.076,1.21,5.071,5.071,0,0,1,.8.71C21.916,335.1,20.76,336.592,15.3,337.386Z"/><path class="cls-5" d="M21.754,324.767v9.961a11.253,11.253,0,0,1-2.4.683,6.337,6.337,0,0,1-1.187.119h-.089c-.149,0-.312-.015-.46-.03a4.423,4.423,0,0,1-.46-.074,5.929,5.929,0,0,1-.846-.208,2.3,2.3,0,0,1-.282-.1c-.178-.059-.356-.134-.534-.208-.089-.045-.178-.074-.267-.119-.03-.015-.074-.044-.1-.059v-9.961a.633.633,0,0,1,.638-.638h5.357A.633.633,0,0,1,21.754,324.767Z"/><path class="cls-10" d="M21.754,334.728a11.253,11.253,0,0,1-2.4.683,6.337,6.337,0,0,1-1.187.119h-.089c-.149,0-.312-.015-.46-.03a4.423,4.423,0,0,1-.46-.074,5.929,5.929,0,0,1-.846-.208,2.3,2.3,0,0,1-.282-.1c-.178-.059-.356-.134-.534-.208-.089-.045-.178-.074-.267-.119-.03-.015-.074-.044-.1-.059v-9.961a.633.633,0,0,1,.638-.638h2.285l.03,9.1C18.029,334.965,21.442,334.654,21.754,334.728Z"/><path class="cls-3" d="M15.856,319.253a1.644,1.644,0,0,0-.347-2.143,10.779,10.779,0,0,0-2.038-1.241,5.811,5.811,0,0,1-2.689-5.612c.641-4.759,6.682-6.905,8.431-11.377a7.118,7.118,0,0,0-.813-6.6,4.1,4.1,0,0,0-4.023-1.923c-1.535.366-2.435,2.608-1.231,3.629Z"/><path class="cls-3" d="M16.142,288.538a2.442,2.442,0,0,0,1.29.569,2.258,2.258,0,0,1,1.23.547,7.921,7.921,0,0,1,1.166,1.773c.282.589.559,1.168.84,1.753a5.876,5.876,0,0,1,.353,4.082,9.251,9.251,0,0,1-1.852,3.481c-.868,1.118-1.783,2.1-2.613,3.148a12.62,12.62,0,0,0-2.016,3.339,3.264,3.264,0,0,1-1.216,1.427,2.4,2.4,0,0,0-1.042,1.406,3.662,3.662,0,0,0,.3,2.25,2.855,2.855,0,0,0,1.566,1.491,2.38,2.38,0,0,1,.627.322c.242.157.57.373.96.653a8.31,8.31,0,0,1,1.313,1.143,5.766,5.766,0,0,1,1.115,1.9c.136.411.257.844.432,1.462a.74.74,0,0,1-.653.979,2.372,2.372,0,0,1-1.5-.538,8.011,8.011,0,0,1-.992-.874c-.18-.177-.26-.227-.261-.25a.971.971,0,0,0-.166-.524.846.846,0,0,0-.255-.254,1.793,1.793,0,0,0-.441-.214,13.067,13.067,0,0,1-1.723-.619,6.433,6.433,0,0,1-1.835-1.346,6.792,6.792,0,0,1-1.865-4.16c-.123-1.725.732-3.167,1.276-4.552a17.941,17.941,0,0,1,3-4.3,21.624,21.624,0,0,1,2.925-3.369,4.209,4.209,0,0,0,1.439-1.959,5,5,0,0,0,.109-2.468,3.675,3.675,0,0,0-.784-1.569c-.338-.42-.728-.78-1.074-1.162a1.194,1.194,0,0,0-.812-.4.715.715,0,0,0-.585.206,2.191,2.191,0,0,0-.444.616,3.157,3.157,0,0,0-.276.646,14.969,14.969,0,0,1-1.276,1.69c-.5.644-.979.847-1.275.5a4.046,4.046,0,0,1-.775-3.165,4.852,4.852,0,0,1,1.138-2.349,4.411,4.411,0,0,1,2.3-1.388,4.719,4.719,0,0,1,2.354.1Z"/><path class="cls-13" d="M466.941,590H16.059c0-.48-.011-.96-.011-1.44H.09c-.11-34.769-.07-84.73-.07-125.5H0V369.9c.95-.25,1.91-.48,2.87-.71.019,0,.03-.01.05-.01,3.849-.93,7.709-1.7,11.549-2.33l.14-.02.08-.01c.009-.01.02-.01.04-.01.52-.09,1.029-.17,1.549-.24.511-.09,1.02-.16,1.54-.23A166.032,166.032,0,0,1,38.5,364.667c1.81-.04,3.62-.05,5.419-.03.41.01.82.01,1.23.02h.13q5.685.1,11.339.57,1.05.075,2.1.18l.36.03c.04.01.09.01.13.02a1.841,1.841,0,0,1,.33.03c.55.05,1.1.1,1.65.16.5.05,1.01.11,1.51.17,1.36.15,2.719.321,4.079.5.39.05.78.1,1.17.16.35.05.69.09,1.03.14q6.975,1.02,13.879,2.5c.92.19,1.83.39,2.74.6.32.07.64.14.96.22s.619.14.929.22c2.9.681,5.8,1.411,8.68,2.211.28.08.57.15.85.23l.52.15c.63.18,1.25.36,1.889.54h.011a.185.185,0,0,0,.08.02A295.51,295.51,0,0,1,135.3,386.4q5.743,2.492,11.419,5.211C168,401.766,188.464,413.9,207.793,426.362c.01,0,.02.01.03.02q10.138,6.617,20.078,13.6c.9.63,1.8,1.26,2.69,1.89l.01.01c1.05.74,2.09,1.481,3.13,2.231.58.41,1.16.83,1.739,1.25q11.67,8.387,23,17.144c.23.18.45.35.671.53q2.338,1.8,4.649,3.621c.29.23.58.45.87.68a.01.01,0,0,1,.01.01c4.529,3.541,8.919,7.052,13.329,10.643.29.24.579.47.87.71h.01c9.319,7.592,18.658,15.484,27.487,23.245h.01c49.346,40.44,90.543,77.319,149.038,86.611Q461.067,589.46,466.941,590Z"/><path class="cls-14" d="M267.361,549.545a10.147,10.147,0,0,1-2.977-.448l.244-.8a10.067,10.067,0,0,0,8.193-1.172c4.486-2.631,8.11-8.129,9.456-14.348,2.247-10.363-.51-21.427-3.163-29.908a180.045,180.045,0,0,0-15.679-36l.339-.195.306-.317.076.1a180.768,180.768,0,0,1,15.752,36.172c2.684,8.579,5.471,19.779,3.184,30.332-1.395,6.44-5.17,12.145-9.85,14.89A11.594,11.594,0,0,1,267.361,549.545Z"/><path class="cls-14" d="M252.012,537.5l-.158-.819c3.575-.687,7.625-1.468,10.9-4.2,3.612-3.026,6.146-8.426,6.952-14.812.764-6.06-.026-12.224-.9-17.453a170.376,170.376,0,0,0-10.725-37.548l.768-.321a171.107,171.107,0,0,1,10.777,37.732c.883,5.289,1.68,11.528.9,17.693-.831,6.594-3.471,12.188-7.243,15.349C259.848,535.993,255.685,536.795,252.012,537.5Z"/><path class="cls-14" d="M283.633,574.75l-.014-.832a10.856,10.856,0,0,0,3.621-.835c13.091-5.066,18.875-20.8,17.823-33.732-1.123-13.919-8.312-26.832-14.654-38.223L277.636,478.2l.727-.4,12.773,22.931c6.383,11.464,13.619,24.46,14.757,38.56,1.077,13.234-4.881,29.362-18.353,34.577A11.658,11.658,0,0,1,283.633,574.75Z"/><path class="cls-15" d="M221.435,450.641a1.717,1.717,0,0,0,1.1-.215,3.584,3.584,0,0,1,1.022-.5A10.794,10.794,0,0,0,227.1,448.6a47.783,47.783,0,0,0,6.933-4.742,17.961,17.961,0,0,0,5.051-8.11c.512-1.768,1.929-3.137,2.478-4.925a24.659,24.659,0,0,0,1.283-7.584c-.02-1.8.587-3.6.161-5.366a1.126,1.126,0,0,0-.347-.616c-.365-.326.321-.469,1.061-.745.791-.31,1.085-.032,1.128.262.193,1.2.185,2.363.266,3.543a27.81,27.81,0,0,1-.93,9.178c-.45,1.556-1.183,3-1.693,4.532a33.328,33.328,0,0,1-2.51,5.587,17.726,17.726,0,0,1-3.9,5.233,44.67,44.67,0,0,1-7.22,5.254,19.424,19.424,0,0,1-5.846,2.467,39.176,39.176,0,0,1-4.269.575l-1.081.034c-.36-.032-.721-.069-1.079-.116a7.315,7.315,0,0,1-2.081-.576c-.352-.143-.2-.772-.057-1.387.123-.509.3-.776.49-.729a14.2,14.2,0,0,0,6.507.282Z"/><path class="cls-16" d="M296.505,590H273.487c-2.29-1.29-4.639-2.491-7.039-3.631h-.01c-.3-.15-.6-.3-.91-.44-8.109-3.8-16.649-6.982-24.848-10.533l-.69-.3c-12.159-5.291-23.518-11.482-31.538-21.845a27.38,27.38,0,0,1-3.409-5.721h-.01a29.014,29.014,0,0,1-1.76-18.484c1.49-6.1,5.809-12.613,8.769-18.385a38.762,38.762,0,0,0,1.95-4.391c.13-.35.24-.7.34-1.04a12.562,12.562,0,0,0,.54-2.6c1.04-10.972-8.979-17.524-18.908-22.715.759-.28,1.529-.57,2.279-.87-1.739-.91-3.469-1.78-5.149-2.611-.6-.31-1.2-.61-1.78-.9-1.36-.69-2.66-1.36-3.87-2.03-.03-.02-.049-.03-.08-.05-.77-.42-1.5-.841-2.18-1.261-.219-.14-.44-.28-.65-.42-.239-.15-.469-.3-.7-.46-5.829-3.991-3.329-7.412-9.149-11.4-.739-.5-1.48-1.02-2.23-1.55-.129-.09-.259-.19-.389-.28a.408.408,0,0,0-.071-.04c0-.01-.009-.01-.02-.02-.259-.18-.52-.37-.79-.57a.19.19,0,0,0-.049-.03c-.19-.14-.39-.29-.59-.44-.37-.27-.74-.54-1.1-.82-.29-.22-.58-.44-.87-.671-.34-.26-.68-.53-1.02-.8-.4-.32-.79-.64-1.18-.97s-.78-.66-1.16-1c-.29-.25-.59-.52-.88-.79-.11-.1-.22-.2-.32-.3-.53-.481-1.04-.991-1.55-1.5-.12-.13-.24-.25-.37-.38-.5-.52-.989-1.06-1.459-1.61-.21-.25-.42-.51-.63-.77-.131-.15-.25-.3-.37-.461-.1-.12-.19-.24-.28-.36l-.271-.36c-.119-.15-.229-.31-.339-.47-.04-.05-.07-.1-.11-.15a2.2,2.2,0,0,1-.17-.25l-.3-.45c-.16-.24-.31-.47-.45-.71-.19-.29-.36-.58-.52-.87-.05-.09-.11-.191-.15-.28a1.2,1.2,0,0,1-.12-.221c-.11-.19-.2-.37-.29-.56a2.261,2.261,0,0,1-.17-.35c-.06-.12-.11-.24-.17-.36a1.009,1.009,0,0,1-.07-.15.26.26,0,0,1-.04-.1c-.13-.29-.25-.58-.37-.88-.1-.26-.2-.53-.29-.79a2.415,2.415,0,0,1-.12-.35c-.08-.26-.16-.511-.23-.761s-.14-.5-.2-.75a.037.037,0,0,1-.01-.03c-.03-.12-.06-.24-.08-.37-.06-.27-.12-.55-.17-.83-.03-.16-.06-.33-.08-.5s-.04-.34-.07-.51c-.04-.34-.07-.69-.09-1.03l17.129-2.041c.25,10.192,8.529,17.824,17.008,23.936,1.08.79,2.17,1.54,3.24,2.28,3.2,2.191,5.739,4.421,8.409,6.542l1.05.81a43.57,43.57,0,0,0,6.26,4.051.265.265,0,0,1,.07.04q2.338,1.23,4.429,2.47h.01C237.86,487.826,236,504.24,232.9,516.363c-.11.45-.23.9-.36,1.34l-.72,2.07-1.64,4.682c-.99,2.45-1.98,4.581-2.68,6.3-3.22,7.912-5.13,13.453.1,20.205a56.005,56.005,0,0,0,12.649,11.773c.12.09.24.17.36.25,10.469,7.141,23.068,11.672,35.317,16.8.13.049.27.11.4.17A136.857,136.857,0,0,1,296.505,590Z"/><path class="cls-3" d="M300.105,590H277.247c-1.03-.62-2.07-1.2-3.12-1.78h-.02c-.01-.01-.01-.01-.02-.01a.037.037,0,0,0-.03-.01c-.01-.01-.01-.01-.02-.01-1.5-.831-3.039-1.611-4.579-2.361-.19-.1-.39-.19-.58-.28-6.06-2.911-12.379-5.441-18.649-8-.02-.01-.03-.02-.04-.02a.01.01,0,0,0-.01-.01c-3.61-1.47-7.189-2.961-10.7-4.541-.18-.08-.36-.16-.55-.25-11-5.011-21.148-10.993-28.5-20.5-.389-.51-.77-1.03-1.11-1.56a.009.009,0,0,1-.009-.01s-.011,0-.011-.01a29,29,0,0,1-4.039-22.636c1.48-6.1,5.809-12.613,8.759-18.384.42-.83.82-1.65,1.17-2.44a23.671,23.671,0,0,0,1.12-2.991,12.492,12.492,0,0,0,.55-2.6c1.02-10.862-8.789-17.394-18.619-22.555,1.27-.5,2.52-1.01,3.73-1.54.61-.26,1.21-.52,1.8-.791s1.18-.54,1.76-.81c1.15-.54,2.27-1.09,3.37-1.65.54-.28,1.08-.56,1.609-.84s1.051-.571,1.56-.861h.01c.64-.36,1.26-.72,1.87-1.08,25.878,15.294,24.038,31.738,20.939,43.86-.12.451-.241.9-.37,1.341l-1.42,4.051-.941,2.7c-.989,2.451-1.969,4.581-2.669,6.3-3.22,7.912-5.14,13.463.09,20.205a55.522,55.522,0,0,0,11.829,11.2c.11.08.23.16.35.25,10.259,7.212,22.668,11.773,34.817,16.814.13.05.26.11.39.16v.01a141.5,141.5,0,0,1,21.958,10.873C299.315,589.49,299.715,589.74,300.105,590Z"/><path class="cls-17" d="M172.706,460.936c-9.491-6.49-19.969-14.729-20.257-26.23l2.024-.241c-.017-.261-.035-.522-.042-.787l19.157-2.284c.278,11.49,10.767,19.729,20.247,26.22,5.831,3.991,9.461,8.116,15.723,11.4,1.556.816,3.007,1.636,4.4,2.459,12.185-7.258,19.1-15.675,18.325-24.068-1.811-19.635-44.986-31.7-96.433-26.951S44.163,444.967,45.975,464.6s44.986,31.7,96.433,26.951c20.207-1.866,38.674-6.053,53.554-11.634-5.286-2.759-10.55-5.132-14.114-7.575C176.027,468.353,178.526,464.927,172.706,460.936Z"/><path class="cls-18" d="M183.83,471.315c-5.82-3.991-3.322-7.416-9.141-11.407-9.273-6.342-19.482-14.354-20.216-25.443l-2.024.241c.288,11.5,10.766,19.74,20.257,26.23,5.82,3.991,3.321,7.417,9.142,11.408,3.564,2.443,8.828,4.816,14.114,7.575.767-.288,1.532-.576,2.28-.871C192.856,476.222,187.461,473.805,183.83,471.315Z"/><path class="cls-19" d="M209.558,469.011c-6.262-3.281-9.892-7.406-15.723-11.4-9.48-6.491-19.969-14.73-20.247-26.22l-19.157,2.284c.288,11.5,10.766,19.739,20.258,26.23,5.819,3.991,3.321,7.416,9.141,11.407,3.631,2.49,9.026,4.907,14.412,7.733a109.081,109.081,0,0,0,15.714-7.578C212.565,470.647,211.114,469.827,209.558,469.011Z"/><path class="cls-15" d="M257.836,423.443c-.439.3-.059.829-.273,1.2a9.581,9.581,0,0,0-1.006,1.79,8.755,8.755,0,0,1-2.774,3.406c-1.217,1.115-2.31,2.274-3.564,3.616a2.24,2.24,0,0,1-1.369.57,5.3,5.3,0,0,0-1.432.225c-1.236.487-2.508.838-3.815,1.345-.959.356-1.952-.107-2.99.138a.743.743,0,0,0-.438.25c-.293.288-.315-.433-.209-1.2.113-.833.274-1.033.391-1.026a5.319,5.319,0,0,0,1.547-.069c1.351-.339,2.645-.771,3.958-1.161a7.235,7.235,0,0,0,2.069-.609,16.619,16.619,0,0,0,2.121-1.5,12.779,12.779,0,0,1,1.917-1.8,8.205,8.205,0,0,0,2.465-2.79c.469-.788.595-1.71,1.1-2.513.694-1.127.462-2.419,1.213-3.668.106-.178.737-.039,1.356.1.51.115.793.223.77.292l-.466,1.663c-.173.585-.364,1.17-.586,1.743Z"/><path class="cls-15" d="M272.228,387.7c.276.139.445-.2.685-.209a3.179,3.179,0,0,0,1.181-.183c.787-.355,1.682-.422,2.492-.771a4.117,4.117,0,0,0,2.1-2.02c.22-.521.894-.655,1.169-1.152a4.47,4.47,0,0,0,.678-2.149c0-.522.359-1.013.187-1.554a.329.329,0,0,0-.163-.195c-.183-.1.205-.173.633-.218.463-.05.588.031.6.121.037.371.01.743.027,1.121a5.656,5.656,0,0,1-.636,2.912c-.248.47-.643.831-.9,1.284a9.324,9.324,0,0,1-1.241,1.547,4.425,4.425,0,0,1-1.673,1.242c-.906.321-1.769.65-2.658.9a7.643,7.643,0,0,1-1.888.473,10.008,10.008,0,0,1-2.6.187c-.116-.028-.155-.383-.192-.731-.029-.288-.009-.455.056-.456a18.961,18.961,0,0,0,2.148-.138Z"/><path class="cls-20" d="M272.182,384.983a.61.61,0,0,1-.134.01C272.027,384.839,272.068,384.808,272.182,384.983Z"/><path class="cls-21" d="M276.274,414.8c-.247.216-.493.442-.74.648-.391.349-.782.689-1.173,1.008-6.221,5.112-12.36,7.282-23.434,4.114-18.294,1.132-34.089-6.912-33.955-14.544-2.2-6.769-.956-6.872.021-8.878-.792-.226,1.419-.473-.257-3.857-.072-.154-.165-.308-.257-.483.195.03.39.061.575.072a9.32,9.32,0,0,0,6.993-2.685c-.339.442,1.552.6,3.948.751,1.07.072,2.242.134,3.363.226-1.429-.843.967-3.682,3.476-6.244,3.5-2.479,9.141-4.773,14.375-4.567a12.626,12.626,0,0,1,6.438,1.883c.246,2.8,2.848,2.54,3.64.308,1.82,1.091,7.167-.154,9,4.547-.483-2.541,1.635,1.368,5.82.977.062.473.69,2.026,1.491,1.759,3.281-.144,4.309.3,4.5.576,2.489,3.888,3.692,8,2.633,10.811C284.6,406.172,281.6,412.2,276.274,414.8Z"/><path class="cls-21" d="M296.326,373.236a6.3,6.3,0,0,1-1.707,3.292,3.242,3.242,0,0,1-.874.514,26.135,26.135,0,0,1-4.165,2.8c-2.437.154-4.576.822-6.694.977-.7.134-.977-.031-1.923-.607-.237.154-.658-.216-1.511-.381a17.667,17.667,0,0,0-3.5-.216,9.582,9.582,0,0,1-4.133-.565,5.017,5.017,0,0,1-3.281-1.77c-.421-.01-.38-.524-.668-1.213a7.569,7.569,0,0,1-1.255-3.333,4.989,4.989,0,0,1,.278-3.477c-.175-.555.051-.545.339-.977a7.834,7.834,0,0,1,2.571-1.718,12.379,12.379,0,0,0,2.735-.38c.175-.062.36-.134.535-.216.123-.391.422-.618.988-1.266a1.92,1.92,0,0,1,1.943-.658,8.628,8.628,0,0,1,5.429-.37,11.343,11.343,0,0,1,1.913.967c.874-.052,1.738.915,2.6,1.213a14.676,14.676,0,0,1,4.042.2,5.347,5.347,0,0,1,4.452,2.109,20.159,20.159,0,0,0,1.841,2.18c-.247,1.265.133,1.358.072,1.759A.823.823,0,0,1,296.326,373.236Z"/><path class="cls-22" d="M274.361,416.459c-6.221,5.112-12.36,7.282-23.434,4.114-18.294,1.132-34.089-6.912-33.955-14.544-2.2-6.769-.956-6.872.021-8.878-.792-.226,1.419-.473-.257-3.857.1-.144.216-.278.318-.411a9.32,9.32,0,0,0,6.993-2.685c-.339.442,1.552.6,3.948.751-.061.226-.113.442-.164.668-.7,3.127-.216,7.108,2.694,8.456a5.4,5.4,0,0,1,1.317.648c.976.771.873,2.242,1.2,3.446a4.536,4.536,0,0,0,3.691,3.2,8.484,8.484,0,0,1,2.777.349,4.746,4.746,0,0,1,1.758,2.016c1.841,3.045,4.679,5.833,8.216,6.265,1.882.236,3.774-.206,5.645-.1,2.17.134,4.227,1.008,6.365,1.43,3.466.679,7.065.185,10.551-.422C272.819,416.757,273.59,416.613,274.361,416.459Z"/><path class="cls-3" d="M230.468,453.277s-2.126,4.541-8,9.19a41.409,41.409,0,0,1-9.658,5.631c-.051.022-.173.076-.356.153-.142.055-.295.121-.448.187-.621.242-1.241.5-1.873.748-.193.077-.387.143-.591.221a67.163,67.163,0,0,1-22.174,4.092,108.841,108.841,0,0,1-31.276-4.151,169.611,169.611,0,0,1-18.8-6.306,16.53,16.53,0,0,1-3.16-2.1,91.314,91.314,0,0,1-8.481-6.552l14.664-103.317.322-2.261,2.733-19.261,62.87-1.625.628,3.235.131.686.381,2,.367,1.884.95,4.914.428,2.222,1.258,6.512,3.669,18.972,1.032,5.323Z"/><path class="cls-23" d="M210.382,349.374l-.129-.691-1.131-5.821-.429-2.22-.95-4.912-.081-.44-.279-1.45-.011-.02-.009-.01-.14-.18-1.35-1.781-.61-.8-2.3-3.03-3.3.08-2.8.08-.351.01H196.5l-3.46.08h-.11l-1.56.04-1.22.03-1.19.04-2.209.06h-.021l-4.65.12-27.747.71-6.469.16-4.5.12h-.01l-.64,4.511-.24,1.69v.01l-1.85,13.053L135.3,386.4l-.01.08h-.01l-4.9,34.538-4.24,29.9-.01.07-.479,3.4v.01s.439.41,1.279,1.1c.42.35.94.781,1.55,1.251.3.24.63.5.98.77.12.09.23.18.35.27.42.33.87.68,1.36,1.03a1.366,1.366,0,0,0,.21.15c.55.41,1.15.84,1.77,1.291.32.22.64.45.97.68h.01l2.709-.07.66-4.661.04-.27,5.14-36.019,4.03-28.236.01-.071.22-1.55a45.314,45.314,0,0,1,13.148-26.016,2.722,2.722,0,0,1,4.55,2.611l-.02.04v.01a1.422,1.422,0,0,1-.11.33l-2.109,4.621-.41.91-6.56,14.4-2.73,5.992,18.849,8.782L185.7,364.557a16.872,16.872,0,0,1,1.529-3.171c5.66-8.872,17.7-9.252,23.178.371.04.069.081.14.121.22l3.519,6.371Z"/><path class="cls-24" d="M213.154,331.43a4.186,4.186,0,0,1-.12.691c0,.01,0,.02-.01.02a2.575,2.575,0,0,1-1.532,1.712c-.57.24-1.171.471-1.792.711-.651.24-1.331.49-2.042.731q-1.741.6-3.694,1.171a100.775,100.775,0,0,1-11.451,2.644c-.29.05-.591.1-.891.15q-1.937.315-3.964.571c-2.543.32-5.185.571-7.908.711,0,.01-.01,0-.01,0a101.485,101.485,0,0,1-25.466-1.763c-1.221-.25-2.653-.54-4.184-.891-1.342-.3-2.763-.651-4.185-1.051l-.93-.27c-.841-.251-1.682-.521-2.493-.811q-.735-.256-1.442-.541c-.35-.15-.69-.291-1.03-.441a21.306,21.306,0,0,1-2.583-1.342c-.18-.11-.361-.23-.521-.34a4.588,4.588,0,0,1-.49-.351c-.16-.12-.321-.24-.461-.36s-.29-.24-.43-.37-.26-.251-.39-.381-.241-.26-.351-.4-.21-.27-.31-.41c-.08-.12-.16-.241-.231-.361a4.007,4.007,0,0,1-.26-.49,4.234,4.234,0,0,1-.18-.451.254.254,0,0,1-.02-.07,2.571,2.571,0,0,1-.13-.531,5.1,5.1,0,0,1,.57-3.374c.011-.03.031-.05.041-.08,0,0,5.415-6.629,12.052-14.53l.711-.851c8.158-9.7,17.868-21.008,21.652-24.382.12-.1.23-.191.33-.281a4.686,4.686,0,0,1,2.132-.961,14.4,14.4,0,0,1,5.2.05,25.082,25.082,0,0,1,3.114.711l6.156,8.151,11.562,15.3.09.11,3.093,4.1,2.162,2.864v.01l7.458,9.863,1.211,1.492,1.762,2.153s.07.23.14.6A5.527,5.527,0,0,1,213.154,331.43Z"/><path class="cls-25" d="M213.152,331.429v.01a1.922,1.922,0,0,1-.29.14c-1.58.651-3.419.08-5.3-1.16-.14-.08-.27-.17-.4-.26l-.449-.33a1.486,1.486,0,0,1-.131-.09c-.689-.53-1.369-1.13-2.049-1.77a52.6,52.6,0,0,1-5.2-5.992.38.38,0,0,1-.05-.07c-.759-1.01-1.44-1.96-2-2.78-1.08-1.571-1.729-2.631-1.729-2.631l-1.01-1.671v-.01l-7.9-13.153-.521-.86-9.789-16.294c-.22-.04-.45-.07-.689-.11-.481-.06-.981-.11-1.491-.14a11.5,11.5,0,0,0-3.009.2l-.12.03a5.058,5.058,0,0,0-.56.15c-.14.051-.27.09-.4.15a1.554,1.554,0,0,0-.29.141.037.037,0,0,0-.03.01.506.506,0,0,0-.13.07,1.072,1.072,0,0,0-.21.12,2.918,2.918,0,0,0-.4.29c-.1.09-.21.18-.33.28-3.78,3.37-13.489,14.673-21.648,24.375l-.71.861-.62.74c-.45.54-.9,1.08-1.35,1.6-.15.18-.3.37-.46.55-.38.47-.77.931-1.15,1.381-.18.22-.37.45-.56.67-.75.91-1.48,1.79-2.16,2.6-.25.3-.49.59-.73.881-.529.65-1.04,1.26-1.5,1.82-.23.29-.46.56-.669.81-.161.19-.311.37-.46.55-.221.28-.44.55-.65.79-.39.491-.74.911-1.01,1.231-.081.11-.17.21-.24.3-.1.12-.18.22-.25.3-.04.05-.08.1-.11.14-.061.07-.1.12-.12.14a.031.031,0,0,0-.01.02c-.01.03-.03.05-.04.08q-.165.33-.3.66c-.04.11-.08.21-.11.32s-.07.21-.1.32a4.608,4.608,0,0,0-.07,2.081,3.3,3.3,0,0,0,.13.52v.01h.01c-.01.01,0,.02.01.04s0,.01.01.03a4.22,4.22,0,0,0,.18.45c.02.04.05.09.07.14.05.09.09.18.14.27.02.03.03.05.05.08a1.739,1.739,0,0,0,.11.18l.12.18a.865.865,0,0,1,.07.1c.05.07.1.13.15.2a1.063,1.063,0,0,1,.09.11c.11.14.23.27.35.4l.19.19c.07.061.129.131.2.191a3.968,3.968,0,0,0,.32.27c.129.12.27.23.41.34.06.04.1.08.159.12.071.06.161.11.231.17s.17.12.25.17a.712.712,0,0,0,.11.08q.2.135.42.27c.06.04.129.07.189.11.25.15.5.29.76.43.131.07.26.14.4.21.209.11.419.22.639.32s.441.2.67.3c.311.14.63.27.95.41.3.12.6.23.9.34.17.06.34.13.51.19.01,0,.02.01.03.01h.01v.01a.235.235,0,0,1,.08.02c.76.27,1.54.52,2.32.761a.292.292,0,0,1,.09.02l.93.27c.08.03.15.04.23.07.54.15,1.09.29,1.62.43a2.752,2.752,0,0,1,.27.07c.139.03.27.06.4.09.56.14,1.109.27,1.659.4h.01c1.53.35,2.95.64,4.17.89h.01c.84.17,1.68.33,2.52.47.5.09.99.17,1.48.24.44.07.88.14,1.32.2.02,0,.05.01.069.01l.21.03c.1.01.2.03.3.04.049.01.109.01.159.02.99.13,1.961.26,2.93.35.45.051.89.09,1.34.14.47.04.93.07,1.39.111.36.03.73.05,1.09.079.54.041,1.07.07,1.61.09.59.031,1.18.051,1.78.071.5.02,1,.03,1.5.05h.48c.6.01,1.191.02,1.79.02h.29c.19,0,.38,0,.571-.01s.389-.01.569-.01c.33,0,.65-.01.98-.02.28-.01.55-.01.82-.02l.83-.03c.48-.02.96-.041,1.43-.071h.01c.4-.019.79-.039,1.18-.07.52-.029,1.03-.069,1.54-.11.05,0,.11-.01.159-.01l1.29.351.231-.481c.269-.029.539-.05.8-.08l1.16-.12c.519-.06,1.029-.12,1.54-.19h.009v-.01c.22-.02.44-.05.66-.08.62-.08,1.23-.16,1.84-.26.16-.02.32-.04.48-.07.33-.05.66-.1.99-.16.23-.03.46-.07.69-.11l.2-.03v-.01a.777.777,0,0,1,.16-.02c.06-.01.11-.02.16-.03.12-.02.22-.04.33-.06h.02c.3-.05.6-.11.89-.16.509-.1,1.02-.2,1.52-.3.41-.08.819-.16,1.22-.25.38-.08.75-.17,1.119-.25.47-.1.94-.21,1.4-.33.71-.17,1.4-.34,2.07-.52.55-.14,1.1-.29,1.64-.45.31-.08.62-.17.92-.27.22-.06.44-.12.66-.19,1.06-.32,2.07-.641,3.03-.981h.009c.52-.18,1.02-.35,1.511-.54.1-.03.2-.07.3-.11.08-.03.15-.06.221-.09.04-.01.08-.03.12-.04a.532.532,0,0,0,.13-.05l.239-.09c.45-.17.89-.35,1.31-.52.09-.04.18-.08.26-.12a1.322,1.322,0,0,0,.2-.13,3.392,3.392,0,0,0,1.04-1.38c.01-.03.02-.05.03-.08.01,0,.01-.01.01-.02v-.01l.01-.01a7.573,7.573,0,0,0,.29-.791A.939.939,0,0,1,213.152,331.429Zm-43.856,6.5c-9.739.02-20.538-3.571-20.549-3.571-1.229-.25-2.759-2.321-2.12-3.4l1.241-1.53,25.6-31.408,7.649,10.323a17.57,17.57,0,0,1,1.4,19.464l-.42.741-.011.01-2.109,3.711C177.655,336.351,174,337.921,169.3,337.931Z"/><ellipse class="cls-26" cx="198.471" cy="370.156" rx="6.58" ry="8.49" transform="translate(-9.483 5.243) rotate(-1.478)"/><path class="cls-27" d="M205.048,369.991c.121,4.678-2.72,8.559-6.359,8.653a2.033,2.033,0,0,1-.247,0c2.248-1.375,3.765-4.388,3.676-7.833-.119-4.6-3.032-8.256-6.562-8.309a5.249,5.249,0,0,1,2.694-.831C201.889,361.573,204.927,365.3,205.048,369.991Z"/><path class="cls-28" d="M212.808,468.1c-.875.362-1.77.735-2.677,1.088a66.921,66.921,0,0,1-22.765,4.313c-.2-8.525.425-34.1,14.95-34.476,2.323-.06,7.893.516,9.106,13.645Z"/><path class="cls-27" d="M212.808,468.1c-1.393.591-2.84,1.164-4.306,1.727l-1.27-14.116c-1.213-13.119-6.783-13.695-9.106-13.635a10.816,10.816,0,0,0-3.878.8,10.788,10.788,0,0,1,8.068-3.851c2.323-.06,7.893.516,9.106,13.645Z"/><polygon class="cls-4" points="223.655 249.884 234.922 258.8 200.214 319.796 167.939 392.913 153.439 386.036 194.333 315.297 223.655 249.884"/><g class="cls-1"><polygon class="cls-29" points="234.921 258.8 200.205 319.799 170.59 394.171 163.84 390.967 153.434 386.034 194.344 315.304 222.511 248.983 230.179 255.043 231.427 256.033 234.921 258.8"/></g><g class="cls-1"><polygon class="cls-29" points="241.365 371.034 234.394 377.338 227.977 383.151 195.37 319.757 148.965 252.151 158.176 246.967 165.328 242.947 200.145 311.019 241.365 371.034"/><polygon class="cls-30" points="234.394 377.338 227.977 383.151 195.37 319.757 148.965 252.151 158.176 246.967 198.853 315.767 234.394 377.338"/></g><polygon class="cls-30" points="230.179 255.043 198.856 315.765 163.84 390.967 153.434 386.034 194.344 315.304 222.511 248.983 230.179 255.043"/><rect class="cls-31" x="200.059" y="442.015" width="1.028" height="30.263" transform="translate(-11.748 5.337) rotate(-1.481)"/><path class="cls-32" d="M269.967,563.3l-16.038-5.552a11.545,11.545,0,0,0-12.519,3.381,10.163,10.163,0,0,0-1.16,1.6,11.431,11.431,0,0,0-1.01,2.15l-.21.61a11.3,11.3,0,0,0-.54,5.121,11.47,11.47,0,0,0,.44,2.111,10.729,10.729,0,0,0,1.06,2.37,11.428,11.428,0,0,0,6.169,5.092l16.039,5.551a11.384,11.384,0,0,0,3.76.64c.16,0,.32,0,.48-.01h.01a11.549,11.549,0,0,0,1.85-.23h.01a9.4,9.4,0,0,0,1.15-.31,11.425,11.425,0,0,0,7.429-7.222l.08-.24v-.01l.13-.36A11.551,11.551,0,0,0,269.967,563.3Zm6.72,14.553-.11.34-.09.27a11.157,11.157,0,0,1-7.609,7.082,9.284,9.284,0,0,1-1.35.28h-.01a9.457,9.457,0,0,1-1.99.1,10.693,10.693,0,0,1-3.19-.59l-16.028-5.562a10.974,10.974,0,0,1-5.63-4.381,9.934,9.934,0,0,1-1.2-2.42,10.476,10.476,0,0,1-.53-2.071,10.978,10.978,0,0,1,.49-5.271l.21-.61a10.571,10.571,0,0,1,.96-2.04,10.106,10.106,0,0,1,1.15-1.6,11.1,11.1,0,0,1,12.029-3.231l16.038,5.562A11.123,11.123,0,0,1,276.687,577.857Z"/><path class="cls-12" d="M359.08,590H16.059c0-.48-.011-.96-.02-1.44q-.662-60.165-1.33-120.339v-.01c-.011-.38-.011-.77-.02-1.15q-.105-9.871-.22-19.735v-.41c.3-.11.61-.22.91-.32a145.668,145.668,0,0,1,22.6-5.971,143.872,143.872,0,0,1,30.1-2.211h.01c19.829.581,39.3,5.1,58.045,12.573q5.745,2.3,11.409,4.952a242.848,242.848,0,0,1,28.088,15.6c.01,0,.02,0,.02.01s.01.01.02.01a.01.01,0,0,1,.01.01c5.8,3.461,11.9,7.612,18.408,12.273.011,0,.011.01.021.01,9.489,6.782,20.058,14.914,29.877,22.4a.01.01,0,0,1,.01.01c.4.31.8.61,1.2.921q8.25,6.316,16.629,12.582c.43.32.85.641,1.28.951,7.029,5.241,14.138,10.412,21.348,15.433.31.23.61.44.919.64h.011q8.024,5.626,16.219,10.963h.009c.27.18.54.36.82.52,8.55,5.561,17.259,10.853,26.148,15.784.24.13.49.27.73.4a303.458,303.458,0,0,0,55.076,24.1C355.94,589.06,357.5,589.54,359.08,590Z"/><path class="cls-33" d="M280.187,590H.1c0-.48,0-.96-.01-1.44-.11-34.769-.07-84.73-.07-125.5v-1.05c0-6.452,0-12.673-.01-18.554v-1.031q0-5.28-.01-10.162a187.908,187.908,0,0,1,37.977,8.362c5.8,1.89,11.529,4.041,17.2,6.411,26.938,11.263,52.446,27.507,77.024,45.251h.02c20.928,15.094,41.177,31.267,61.015,46.371.29.23.59.45.88.67q5.474,4.172,10.919,8.2h.01c1.42,1.05,2.85,2.1,4.259,3.121,0,.01.011.01.011.01a.009.009,0,0,0,.009.01c10.1,7.351,19.429,13.893,29.168,19.944.15.1.31.2.46.29,3.66,2.271,7.389,4.471,11.229,6.612a.01.01,0,0,1,.01.01c.01,0,.02.01.04.02a156.047,156.047,0,0,0,17.289,8.282h.01c.26.11.51.21.77.31h.01c1.869.73,3.769,1.41,5.729,2.051.01,0,.01,0,.02.01a.037.037,0,0,1,.03.01c.01,0,.01,0,.02.01h.02c.38.119.76.23,1.14.34C276.917,589.04,278.557,589.53,280.187,590Z"/><path class="cls-22" d="M294.619,376.528a3.242,3.242,0,0,1-.874.514,26.135,26.135,0,0,1-4.165,2.8c-2.437.154-4.576.822-6.694.977-.7.134-.977-.031-1.923-.607-.237.154-.658-.216-1.511-.381a17.667,17.667,0,0,0-3.5-.216,9.582,9.582,0,0,1-4.133-.565,5.017,5.017,0,0,1-3.281-1.77c-.421-.01-.38-.524-.668-1.213a7.569,7.569,0,0,1-1.255-3.333,4.989,4.989,0,0,1,.278-3.477c-.175-.555.051-.545.339-.977a7.834,7.834,0,0,1,2.571-1.718,12.379,12.379,0,0,0,2.735-.38c-.349.483-.781.925-1.069,1.326a2.93,2.93,0,0,0-.75,2.665,3.659,3.659,0,0,0,1.1,1.388c1.079.977,2.149,1.955,3.229,2.932a6.6,6.6,0,0,0,2.252,1.522,10.2,10.2,0,0,0,3.269.124c3.239-.011,6.4,1.738,9.594,1.234,1.4-.216,2.725-.864,4.134-.864A3.106,3.106,0,0,1,294.619,376.528Z"/><path class="cls-29" d="M194.724,536.827a19.363,19.363,0,0,1-.61,2.5,19.044,19.044,0,0,1-6.07,8.992,25.137,25.137,0,0,1-15.808,5.1,33.582,33.582,0,0,1-8.04-1c-8.309-2.07-15.7-6.861-21.968-11.192-16.389-11.343-31.917-24.476-46.946-37.179-6.72-5.682-13.489-11.4-20.4-17.034h-.019c-9.309-7.572-18.849-14.934-28.8-21.665A231.667,231.667,0,0,0,19.3,449.587c-1.549-.77-3.16-1.54-4.829-2.261A42.55,42.55,0,0,0,0,443.456v-1.031a44.676,44.676,0,0,1,15.4,4.181c1.5.671,2.959,1.371,4.359,2.061A231.611,231.611,0,0,1,45.936,464.03c10.869,7.3,21.258,15.364,31.377,23.656l.011.01c6.3,5.141,12.488,10.372,18.628,15.564,15,12.693,30.517,25.806,46.856,37.118,6.2,4.281,13.489,9.012,21.638,11.043,8.66,2.15,17.249.69,22.949-3.9a17.879,17.879,0,0,0,5.839-8.862,17.048,17.048,0,0,0,.47-2Z"/><path class="cls-3" d="M1102.744,421.372h1.771c0-9.394,7.474-18.689,10.165-18.689l-.127-1.676C1109.6,401.007,1102.744,411.428,1102.744,421.372Z"/><path class="cls-20" d="M1104.066,426.144l22.071,1.7s-.071-1.512-.225-3.586c-.106-1.447-.259-3.16-.46-4.832-.018-.248-.042-.5-.071-.745-.939-7.692-7.17-15.171-10.424-16.459a.448.448,0,0,0-.065-.024,2.25,2.25,0,0,0-.768-.171l-.041.018c-.142.071-.278.142-.419.218a12.166,12.166,0,0,0-1.229.751,15.683,15.683,0,0,0-4.878,5.724C1103.612,416.207,1104.066,426.144,1104.066,426.144Z"/><path class="cls-34" d="M1104.066,426.144l.366.029c-.041-1.654-.059-10.4,3.5-17.126a15.686,15.686,0,0,1,4.878-5.725,11.979,11.979,0,0,1,1.229-.75c.141-.077.277-.148.419-.219l.041-.018a2.225,2.225,0,0,1,.768.172.431.431,0,0,1,.065.023,7.545,7.545,0,0,1,1.713,1.034,8,8,0,0,0-2.085-1.341.448.448,0,0,0-.065-.024,2.25,2.25,0,0,0-.768-.171l-.041.018c-.142.071-.278.142-.419.218a12.166,12.166,0,0,0-1.229.751,15.683,15.683,0,0,0-4.878,5.724C1103.612,416.207,1104.066,426.144,1104.066,426.144Z"/><ellipse class="cls-35" cx="1113.093" cy="411.02" rx="1.329" ry="1.846"/><path class="cls-36" d="M1111.762,410.955c-.024,1.016.549,1.873,1.281,1.908a.9.9,0,0,0,.331-.041,1.828,1.828,0,0,1-1.051-1.867,1.787,1.787,0,0,1,1.051-1.737,1.03,1.03,0,0,0-.23-.041C1112.405,409.141,1111.791,409.933,1111.762,410.955Z"/><path class="cls-37" d="M1113.415,401.254v.934c.006.153.112.159.237.212.448.189.88.4,1.305.627a15.782,15.782,0,0,1,4.866,4.147,21.024,21.024,0,0,1,2.971,5.205,29.819,29.819,0,0,1,1.547,5.128,33.36,33.36,0,0,1,.579,3.9c.036.384.059.762.077,1.14.006.1.012.2.012.307a.568.568,0,0,0,0,.1c.006,0,4.819,1.979,8.634,3.32V407.629a12.984,12.984,0,0,0-5.132-4.868c-.089-.048-.177-.1-.272-.136a5.928,5.928,0,0,0-.779-.284c-.319-.094-.644-.171-.975-.242-.372-.083-.75-.148-1.134-.207-.419-.071-.838-.124-1.258-.177-.443-.053-7.671-1.087-10.6-.6C1113.427,401.124,1113.415,401.2,1113.415,401.254Z"/><path class="cls-8" d="M1113.415,401.254v.934c.006.153.112.159.237.212.448.189.88.4,1.305.627a15.782,15.782,0,0,1,4.866,4.147,21.024,21.024,0,0,1,2.971,5.205,29.819,29.819,0,0,1,1.547,5.128,33.36,33.36,0,0,1,.579,3.9c.036.384.059.762.077,1.14.006.1.012.2.012.307a.568.568,0,0,0,0,.1s.372.065.75.118a2.047,2.047,0,0,0,.75.041v-.035c-.006-.916-.042-1.79-.106-2.635-.065-.869-.166-1.7-.3-2.493-1.8-11.332-9.178-15.3-11-16.282-.413-.225-.832-.426-1.264-.609-.124.012-.236.03-.348.047C1113.427,401.124,1113.415,401.2,1113.415,401.254Z"/><path class="cls-35" d="M1111.336,416.295h3.344a0,0,0,0,1,0,0v3.763a1.5,1.5,0,0,1-1.5,1.5h-.349a1.5,1.5,0,0,1-1.5-1.5v-3.763A0,0,0,0,1,1111.336,416.295Z" transform="translate(2226.016 837.849) rotate(-180)"/><path class="cls-36" d="M1111.336,417.406v4.147h.674v-4.147a1.109,1.109,0,0,1,1.11-1.11h-.673A1.11,1.11,0,0,0,1111.336,417.406Z"/><path class="cls-34" d="M1126.107,406.609c2.745.4,3.115-.318,3.123-.369.13-.812-2.876-1.942-3.782-1.939a3.532,3.532,0,0,0-2.008.6,2.538,2.538,0,0,0-.392.35C1122.846,405.481,1123.416,406.218,1126.107,406.609Z"/><path class="cls-20" d="M1122.926,400.392V405.3a5.565,5.565,0,0,0,1.184.337,3.17,3.17,0,0,0,.585.058h.044a2.145,2.145,0,0,0,.227-.015,1.907,1.907,0,0,0,.226-.036,2.851,2.851,0,0,0,.417-.1.974.974,0,0,0,.139-.051c.088-.029.175-.065.263-.1.044-.022.088-.037.132-.059.015-.007.036-.022.051-.029v-4.907a.312.312,0,0,0-.314-.315h-2.64A.312.312,0,0,0,1122.926,400.392Z"/><path class="cls-34" d="M1122.926,405.3a5.565,5.565,0,0,0,1.184.337,3.17,3.17,0,0,0,.585.058h.044a2.145,2.145,0,0,0,.227-.015,1.907,1.907,0,0,0,.226-.036,2.851,2.851,0,0,0,.417-.1.974.974,0,0,0,.139-.051c.088-.029.175-.065.263-.1.044-.022.088-.037.132-.059.015-.007.036-.022.051-.029v-4.907a.312.312,0,0,0-.314-.315h-1.126l-.015,4.484C1124.761,405.416,1123.08,405.263,1122.926,405.3Z"/><path class="cls-13" d="M1146.655,431.343v.02c-.02,1.79-.07,3.561-.17,5.331-1.61,29.417-14.109,55.943-25.318,82.809-.19.451-.38.911-.57,1.371-3.69,8.862-7.209,17.764-10.129,26.826q-.257.795-.51,1.59c-3.98,12.673-6.75,25.656-7.11,39.27-.02.48-.029.96-.04,1.44H753.2c1.32-.44,2.65-.92,3.98-1.44,23.708-9.113,48.706-27.987,70.994-46.8.1-.08.21-.17.31-.26,5.87-4.952,11.549-9.893,16.959-14.654.15-.12.29-.25.43-.37v-.01c29.1-25.846,57.205-52.432,87.533-73.957.29-.21.58-.41.869-.62,7.82-5.522,15.779-10.693,23.948-15.434h.011c.129-.08.259-.16.389-.23A245.194,245.194,0,0,1,981.6,424.441c.62-.29,1.25-.56,1.88-.83a203.868,203.868,0,0,1,29.118-10.242q5.55-1.5,11.249-2.671c11.479-1.82,23.588-1.58,35.867-.15q6.15.7,12.339,1.78c.98.17,1.959.34,2.94.52.309.06.619.111.929.171.85.16,1.7.32,2.551.49q4.648.9,9.259,1.93h.01c.42.09.83.18,1.239.27h.02a.02.02,0,0,0,.031,0h.009c4.65,1.05,9.28,2.161,13.839,3.291l1.55.39a1.332,1.332,0,0,1,.19.05,1.6,1.6,0,0,1,.21.05q2.955.735,5.87,1.47c.21.05.429.11.639.16s.451.11.67.17c.191.05.37.1.561.141.159.04.32.079.469.119.5.131.991.25,1.48.371q2.625.675,5.21,1.32c.54.14,1.08.27,1.62.4h.01a1.093,1.093,0,0,0,.17.05c.61.16,1.24.34,1.89.52l.99.27c.1.03.21.06.31.08.409.12.819.23,1.239.36h.011c1.539.43,3.129.88,4.749,1.361C1136.5,427.972,1142.485,429.842,1146.655,431.343Z"/><path class="cls-3" d="M1067.648,433.093l-.336,9.8,4.132-1.593c0-19.176,15.076-46.356,20.569-46.356l-.259-3.422C1081.648,391.523,1067.648,412.8,1067.648,433.093Z"/><path class="cls-3" d="M1070.348,442.833l45.051,3.473s-.145-3.087-.458-7.319c-.218-2.955-.531-6.452-.94-9.865q-.056-.759-.145-1.519c-1.917-15.7-14.636-30.968-21.278-33.6a.879.879,0,0,0-.133-.048,4.573,4.573,0,0,0-1.567-.35c-.024.012-.06.024-.084.036-.289.145-.567.289-.856.446a24.826,24.826,0,0,0-2.507,1.532,32.016,32.016,0,0,0-9.958,11.685C1069.42,422.55,1070.348,442.833,1070.348,442.833Z"/><path class="cls-4" d="M1070.348,442.833l.747.061c-.084-3.377-.12-21.224,7.138-34.96a32.021,32.021,0,0,1,9.957-11.685,24.953,24.953,0,0,1,2.508-1.532c.289-.156.566-.3.855-.446.025-.012.06-.024.085-.036a4.578,4.578,0,0,1,1.567.35.964.964,0,0,1,.133.048,15.361,15.361,0,0,1,3.5,2.11,16.337,16.337,0,0,0-4.256-2.737.879.879,0,0,0-.133-.048,4.573,4.573,0,0,0-1.567-.35c-.024.012-.06.024-.084.036-.289.145-.567.289-.856.446a24.826,24.826,0,0,0-2.507,1.532,32.016,32.016,0,0,0-9.958,11.685C1069.42,422.55,1070.348,442.833,1070.348,442.833Z"/><ellipse class="cls-5" cx="1088.773" cy="411.963" rx="2.714" ry="3.768"/><path class="cls-6" d="M1086.056,411.829c-.048,2.075,1.122,3.823,2.616,3.895a1.813,1.813,0,0,0,.675-.084c-1.265-.374-2.194-1.966-2.145-3.811a3.65,3.65,0,0,1,2.145-3.545,2.14,2.14,0,0,0-.47-.084C1087.37,408.127,1086.116,409.743,1086.056,411.829Z"/><path class="cls-7" d="M1089.431,392.028v1.9c.013.314.229.326.483.435.916.386,1.8.808,2.664,1.278a32.269,32.269,0,0,1,9.934,8.465,42.975,42.975,0,0,1,6.064,10.625,60.832,60.832,0,0,1,3.158,10.467,68.2,68.2,0,0,1,1.181,7.971c.073.784.121,1.556.157,2.328.012.2.024.409.024.626a1.181,1.181,0,0,0,0,.206c.012,0,9.837,4.039,17.625,6.777V405.04c-1.724-3.437-5.557-7.115-10.476-9.937-.181-.1-.361-.193-.555-.277a11.963,11.963,0,0,0-1.591-.579c-.651-.193-1.314-.35-1.989-.494-.76-.169-1.531-.3-2.314-.423-.857-.144-1.713-.253-2.568-.361-.9-.109-15.66-2.219-21.628-1.23C1089.456,391.763,1089.431,391.92,1089.431,392.028Z"/><path class="cls-12" d="M1089.431,392.028v1.9c.013.314.229.326.483.435.916.386,1.8.808,2.664,1.278a32.269,32.269,0,0,1,9.934,8.465,42.975,42.975,0,0,1,6.064,10.625,60.832,60.832,0,0,1,3.158,10.467,68.2,68.2,0,0,1,1.181,7.971c.073.784.121,1.556.157,2.328.012.2.024.409.024.626a1.181,1.181,0,0,0,0,.206s.76.132,1.532.241a4.161,4.161,0,0,0,1.531.084v-.072c-.013-1.869-.085-3.654-.218-5.379-.132-1.772-.337-3.461-.6-5.089-3.665-23.129-18.734-31.221-22.448-33.235-.843-.458-1.7-.868-2.58-1.242-.253.024-.482.061-.711.1C1089.456,391.763,1089.431,391.92,1089.431,392.028Z"/><path class="cls-5" d="M1085.188,424.451h6.825a0,0,0,0,1,0,0v8.531a2.205,2.205,0,0,1-2.205,2.205h-2.738a1.882,1.882,0,0,1-1.882-1.882v-8.854a0,0,0,0,1,0,0Z" transform="translate(2177.201 859.638) rotate(-180)"/><path class="cls-6" d="M1085.188,426.72v8.465h1.374V426.72a2.264,2.264,0,0,1,2.267-2.267h-1.374A2.264,2.264,0,0,0,1085.188,426.72Z"/><path class="cls-38" d="M1112.819,402.958c-5.6.813-6.359-.649-6.375-.752-.264-1.658,5.871-3.965,7.72-3.958a7.213,7.213,0,0,1,4.1,1.216,5.037,5.037,0,0,1,.8.715C1119.475,400.656,1118.313,402.16,1112.819,402.958Z"/><path class="cls-7" d="M1119.312,390.268v10.017a11.3,11.3,0,0,1-2.417.687,6.422,6.422,0,0,1-1.195.119h-.089c-.15,0-.314-.015-.463-.03a4.507,4.507,0,0,1-.462-.074,5.838,5.838,0,0,1-.851-.21,2.032,2.032,0,0,1-.284-.1c-.179-.06-.357-.134-.537-.209-.089-.045-.179-.075-.269-.119-.029-.015-.074-.045-.1-.06V390.268a.638.638,0,0,1,.642-.642h5.387A.638.638,0,0,1,1119.312,390.268Z"/><path class="cls-38" d="M1119.312,400.285a11.3,11.3,0,0,1-2.417.687,6.422,6.422,0,0,1-1.195.119h-.089c-.15,0-.314-.015-.463-.03a4.507,4.507,0,0,1-.462-.074,5.838,5.838,0,0,1-.851-.21,2.032,2.032,0,0,1-.284-.1c-.179-.06-.357-.134-.537-.209-.089-.045-.179-.075-.269-.119-.029-.015-.074-.045-.1-.06V390.268a.638.638,0,0,1,.642-.642h2.3l.03,9.151C1115.566,400.524,1119,400.21,1119.312,400.285Z"/><path class="cls-3" d="M1121.015,366.229a5.113,5.113,0,0,0-1.166-3.117c-.117-.22-.23-.44-.357-.663a6.342,6.342,0,0,0-.966-1.318,7.838,7.838,0,0,0-1.186-.9,7.529,7.529,0,0,1-.66-.514,1.19,1.19,0,0,0-.172-.1l-.328-8.4-.013.02c-.02.027-.076.1-.279.314a14.013,14.013,0,0,0-2.512,3.991c-.151.373-.282.757-.4,1.149l-.157.6-.072.307-.053.4a5.69,5.69,0,0,0,.74,2.89,6.255,6.255,0,0,0,.637.974,4.565,4.565,0,0,0-.9.489,4.027,4.027,0,0,0-.378.307c-.056.062-.176.18-.251.275a3.412,3.412,0,0,0-.432.654,5.482,5.482,0,0,0-.323,3.033,7.31,7.31,0,0,0,.719,2.868,4.49,4.49,0,0,0,2.165,1.937,6.074,6.074,0,0,0,.886.3,13.26,13.26,0,0,0-1.81,4.105,8.805,8.805,0,0,0,.812,5.523,8.3,8.3,0,0,0,2.488,3.1c.2.126.385.257.434.291l.012.011-.368-9.383c.156-.231.323-.464.52-.707.428-.556.934-1.16,1.4-1.894a9.78,9.78,0,0,0,.635-1.173c.115-.257.208-.533.306-.805a2.874,2.874,0,0,0,.562-.779,5.8,5.8,0,0,0,.43-3.116A6.4,6.4,0,0,0,1121.015,366.229Z"/><path class="cls-3" d="M1119.9,418.778l-.356,9.146,5.1-.582c0-24.516,19.453-58.991,26.476-58.991l-.331-4.376C1137.864,363.975,1119.9,392.828,1119.9,418.778Z"/><path class="cls-3" d="M1123.418,429.576l57.6,4.441s-.184-3.947-.585-9.359c-.278-3.777-.678-8.248-1.2-12.612q-.071-.97-.185-1.942c-2.451-20.074-18.712-39.593-27.2-42.954a1.1,1.1,0,0,0-.17-.062,5.84,5.84,0,0,0-2-.447c-.031.015-.077.031-.108.046-.37.185-.725.37-1.094.571a31.6,31.6,0,0,0-3.206,1.958,40.94,40.94,0,0,0-12.732,14.94C1122.231,403.644,1123.418,429.576,1123.418,429.576Z"/><path class="cls-4" d="M1123.418,429.576l.955.078c-.108-4.318-.154-27.136,9.125-44.7a40.953,40.953,0,0,1,12.731-14.94,31.7,31.7,0,0,1,3.206-1.957c.369-.2.724-.386,1.094-.571.031-.016.077-.031.108-.046a5.845,5.845,0,0,1,2,.447,1.129,1.129,0,0,1,.169.062,19.632,19.632,0,0,1,4.47,2.7,20.884,20.884,0,0,0-5.441-3.5,1.1,1.1,0,0,0-.17-.062,5.84,5.84,0,0,0-2-.447c-.031.015-.077.031-.108.046-.37.185-.725.37-1.094.571a31.6,31.6,0,0,0-3.206,1.958,40.94,40.94,0,0,0-12.732,14.94C1122.231,403.644,1123.418,429.576,1123.418,429.576Z"/><ellipse class="cls-5" cx="1146.974" cy="390.108" rx="3.469" ry="4.817"/><path class="cls-6" d="M1143.5,389.937c-.062,2.652,1.433,4.888,3.344,4.98a2.31,2.31,0,0,0,.863-.108c-1.618-.478-2.805-2.513-2.743-4.872.061-2.251,1.233-4.085,2.743-4.532a2.685,2.685,0,0,0-.6-.108C1145.18,385.2,1143.577,387.27,1143.5,389.937Z"/><path class="cls-7" d="M1200,380.171v49.551c-7.3-2.59-15.839-5.991-19.758-7.571-1.2-.48-1.96-.8-2.13-.871a.1.1,0,0,0-.04-.01,1.219,1.219,0,0,1,0-.27c0-.27-.02-.54-.03-.8-.04-.75-.08-1.51-.15-2.28-.01-.23-.03-.46-.05-.691-.05-.56-.1-1.13-.17-1.69-.01-.12-.02-.23-.03-.34-.02-.18-.04-.36-.06-.53-.06-.51-.13-1.02-.2-1.52-.01-.12-.03-.23-.05-.351-.07-.54-.15-1.07-.24-1.6l-.06-.36c-.1-.59-.2-1.18-.31-1.781-.12-.67-.25-1.35-.39-2.02a77.882,77.882,0,0,0-4.04-13.383,55.059,55.059,0,0,0-7.749-13.583,41.214,41.214,0,0,0-12.709-10.823c-.5-.27-.99-.52-1.5-.77-.29-.14-.59-.28-.889-.42h-.011a.818.818,0,0,0-.129-.07c-.291-.13-.581-.26-.871-.38a2.361,2.361,0,0,1-.35-.14c-.029-.02-.069-.03-.1-.05a.3.3,0,0,1-.08-.08,1.091,1.091,0,0,1-.06-.11.4.4,0,0,1-.03-.17v-2.441a.615.615,0,0,1,.03-.18.234.234,0,0,1,.19-.19c.29-.04.58-.09.91-.12a4.852,4.852,0,0,1,.549-.06l.321-.03c.189-.02.389-.03.59-.05h.049c.111,0,.221-.01.33-.01,8.65-.45,23.858,1.72,24.9,1.85,1.09.14,2.19.27,3.28.46l.38.061c.88.13,1.73.29,2.58.48q.6.12,1.2.27.675.165,1.35.36a15.9,15.9,0,0,1,2.029.74c.25.11.481.23.711.35l.659.39C1193.341,372.189,1197.68,376.25,1200,380.171Z"/><path class="cls-12" d="M1147.816,364.621v2.436c.016.4.293.416.617.555,1.171.494,2.3,1.033,3.406,1.635a41.219,41.219,0,0,1,12.7,10.823,54.914,54.914,0,0,1,7.753,13.583,77.779,77.779,0,0,1,4.038,13.383,87.268,87.268,0,0,1,1.51,10.191c.093,1,.154,1.989.2,2.975.015.263.031.525.031.8a1.433,1.433,0,0,0,0,.262s.971.17,1.957.309a5.32,5.32,0,0,0,1.958.107v-.092c-.016-2.39-.108-4.672-.278-6.876-.169-2.267-.431-4.425-.77-6.507-4.686-29.571-23.952-39.916-28.7-42.491-1.079-.586-2.173-1.11-3.3-1.588-.324.031-.616.077-.909.123C1147.847,364.282,1147.816,364.483,1147.816,364.621Z"/><path class="cls-5" d="M1142.39,406.577h8.726a0,0,0,0,1,0,0V417.67a2.634,2.634,0,0,1-2.634,2.634h-4.21a1.882,1.882,0,0,1-1.882-1.882V406.577A0,0,0,0,1,1142.39,406.577Z" transform="translate(2293.507 826.88) rotate(-180)"/><path class="cls-6" d="M1142.39,409.478V420.3h1.758V409.478a2.9,2.9,0,0,1,2.9-2.9h-1.756A2.9,2.9,0,0,0,1142.39,409.478Z"/><path class="cls-38" d="M1179.571,378.6c-7.162,1.04-8.129-.829-8.15-.961-.338-2.12,7.506-5.07,9.869-5.061a9.207,9.207,0,0,1,5.241,1.556,6.475,6.475,0,0,1,1.023.913C1188.081,375.653,1186.6,377.575,1179.571,378.6Z"/><path class="cls-7" d="M1187.872,362.371v12.807a14.5,14.5,0,0,1-3.09.878,8.168,8.168,0,0,1-1.527.152h-.114c-.191,0-.4-.019-.592-.038a5.447,5.447,0,0,1-.591-.1,7.572,7.572,0,0,1-1.088-.268,2.783,2.783,0,0,1-.362-.133c-.229-.076-.458-.172-.687-.268-.114-.057-.229-.1-.344-.152-.038-.019-.1-.057-.133-.076V362.371a.815.815,0,0,1,.82-.821h6.888A.814.814,0,0,1,1187.872,362.371Z"/><path class="cls-38" d="M1187.872,375.178a14.5,14.5,0,0,1-3.09.878,8.168,8.168,0,0,1-1.527.152h-.114c-.191,0-.4-.019-.592-.038a5.447,5.447,0,0,1-.591-.1,7.572,7.572,0,0,1-1.088-.268,2.783,2.783,0,0,1-.362-.133c-.229-.076-.458-.172-.687-.268-.114-.057-.229-.1-.344-.152-.038-.019-.1-.057-.133-.076V362.371a.815.815,0,0,1,.82-.821h2.938l.039,11.7C1183.084,375.483,1187.472,375.082,1187.872,375.178Z"/><path class="cls-3" d="M1183.517,355.489c.926-1.083.668-4.045.455-5.4a23.806,23.806,0,0,0-1.373-4.663c-1.118-2.971-2.515-6.05-2.24-9.3.521-6.15,6.812-10.327,8.368-16.3.9-3.462.057-7.023-1.417-10.2a37.612,37.612,0,0,0-2.669-4.7c-.51-.781-1.047-1.542-1.578-2.309-.678-.977-.935-1.118-2.294-.794-2.852.681-4.523,4.844-2.287,6.741Z"/><path class="cls-3" d="M1182.363,298.211a7.12,7.12,0,0,1,1.488.76,6.608,6.608,0,0,1,1,.873,5.884,5.884,0,0,0,.963.9c.484.312,1.049.574,1.242,1.091a22.523,22.523,0,0,0,2.194,5.068,11.731,11.731,0,0,1,1.94,5.964,18.834,18.834,0,0,1-.773,6.418,30.594,30.594,0,0,1-1.211,3.333l-1.411,3.108a22.367,22.367,0,0,0-2.031,6.2,4.227,4.227,0,0,1-1.487,2.537,7.391,7.391,0,0,0-.932,1.106,2.372,2.372,0,0,0-.363,1.291,11.786,11.786,0,0,0,1.124,4.029,34.771,34.771,0,0,0,2.593,4.482,8.165,8.165,0,0,1,1.026,4.228,30.581,30.581,0,0,0,.259,4.664,6.309,6.309,0,0,0,.484,1.822c.29.639-.139.935-.87.9a8.86,8.86,0,0,1-2.81-.857,10.836,10.836,0,0,1-2.112-1.2c-.356-.277-.463-.444-.43-.558a7,7,0,0,0-.269-3.563,45.754,45.754,0,0,0-2.4-4.749,22.821,22.821,0,0,1-2.344-5.912,10.927,10.927,0,0,1-.036-3.877c.089-.662.257-1.311.367-1.958.169-.623.266-1.282.4-1.9a15.3,15.3,0,0,1,1.54-4.346c.651-1.29,1.341-2.46,1.9-3.613.585-1.208,1.047-2.361,1.458-3.339a10.326,10.326,0,0,1,1.3-2.43,5.359,5.359,0,0,0,.97-3.608,14.715,14.715,0,0,0-1.047-4.433,15.8,15.8,0,0,0-1.771-3.1,13.532,13.532,0,0,1-1.8-3.3.523.523,0,0,1-.027-.176l0-.027.285-.24q.192-.171.374-.356c.085-.076.159-.146.234-.226.591-.62.459-.769.4-.363a5.637,5.637,0,0,0-.017,1.1l.019.192.013.223-.009-.007c0-.008-.032,0-.051-.007a1.206,1.206,0,0,0-.191.012,1.8,1.8,0,0,0-.2.034,1.381,1.381,0,0,0-.791.556,6.236,6.236,0,0,0-.607,1.072,6.444,6.444,0,0,0-.467,1.041,30.584,30.584,0,0,1-2.387,3.118c-.932,1.19-1.781,1.6-2.269,1.032a7.907,7.907,0,0,1-.818-1.247,8.931,8.931,0,0,1-.53-1.354,7.658,7.658,0,0,1-.243-2.607,8.772,8.772,0,0,1,4.582-6.934,11.266,11.266,0,0,1,1.039-.45c.363-.113.767-.219,1.109-.288.255-.036.5-.073.867-.107a6.129,6.129,0,0,1,1.549.03Z"/><path class="cls-15" d="M1054.064,448.816a1.543,1.543,0,0,0-.868-.257,3.056,3.056,0,0,1-.885-.2c-.909-.432-1.73-.987-2.611-1.407a16.072,16.072,0,0,1-4.772-4.119c-1.573-1.773-3.127-3.546-4.631-5.483-.872-1.134-.96-2.632-1.435-3.917a44.968,44.968,0,0,1-1.57-5.611c-.319-1.376,0-2.763-.142-4.173a1.288,1.288,0,0,0-.161-.567c-.2-.336.351-.521.9-.439.594.1.711.279.7.462a12.317,12.317,0,0,0,.006,2.39,40.477,40.477,0,0,0,1.27,6.109,14.288,14.288,0,0,0,1.021,3.075A28.032,28.032,0,0,0,1043,438.15c.85,1.14,1.857,2.122,2.7,3.264a16.862,16.862,0,0,0,4.306,3.922,26.507,26.507,0,0,0,3.731,1.745c1.746.736,3.607.552,5.455.52.249,0,.382.446.508.881.105.358.067.582-.105.609a12.072,12.072,0,0,1-5.531-.286Z"/><path class="cls-15" d="M1027.765,421.544c-.182.323.267.458.282.718a2.589,2.589,0,0,0,.29,1.252c.5.771.655,1.75,1.223,2.535a3.689,3.689,0,0,0,2.776,1.5c.615.02.982.748,1.606.908a6.851,6.851,0,0,0,2.571.311c.591-.081,1.171.337,1.714.067a.35.35,0,0,0,.171-.227c.063-.245.187.245.318.786.14.584.07.755-.034.78-.425.1-.843.087-1.262.149a7.964,7.964,0,0,1-3.249-.223c-.547-.153-1.018-.5-1.576-.6a9.412,9.412,0,0,1-2.089-.773,4.179,4.179,0,0,1-1.916-1.454,21.149,21.149,0,0,1-1.543-2.847,6.783,6.783,0,0,1-.729-2.093c-.056-.988-.538-1.92-.3-2.874.031-.115.478-.227.917-.335.362-.091.579-.087.59.011.067.923.1,1.619.228,2.415Z"/><path class="cls-15" d="M1048.224,424.66c-.25.278.134.543.072.819a4.119,4.119,0,0,0-.2,1.355,10.046,10.046,0,0,1-.52,2.918,9.658,9.658,0,0,0-.014,3.415c.125.711-.594,1.221-.735,1.857l-.417,1.34a13.149,13.149,0,0,0-.462,1.381c-.278.679-.943,1.035-1.319,1.675a.526.526,0,0,0-.054.35c.039.288-.351-.034-.724-.441-.4-.439-.444-.623-.391-.69a4.905,4.905,0,0,0,.669-.848c.181-.458.414-.846.553-1.31.081-.221.167-.438.26-.651l.232-.672a4.5,4.5,0,0,0,.522-1.4c.044-.641.143-1.272.157-1.913a5.93,5.93,0,0,1,.165-2.015,12.088,12.088,0,0,0,.517-2.775,14.232,14.232,0,0,1,.093-2.008c.224-.91-.131-1.8.183-2.722.041-.121.5-.168.949-.213.371-.037.586-.014.584.063-.015.841-.066,1.665-.126,2.489Z"/><path class="cls-15" d="M1012.473,404.733c-.147-.176-.371-.008-.541-.091a3.937,3.937,0,0,0-.841-.354,5.284,5.284,0,0,1-1.727-.946,21.337,21.337,0,0,0-1.991-1.114c-.417-.236-.5-.763-.746-1.123a10.233,10.233,0,0,1-.9-1.672c-.2-.433-.044-.908-.175-1.35a.306.306,0,0,0-.114-.174c-.126-.1.154-.145.46-.148.332,0,.417.059.42.117a3.086,3.086,0,0,0,.082.724,8.582,8.582,0,0,0,.717,1.7,2.552,2.552,0,0,0,.5.813,8.6,8.6,0,0,0,.946.75,6.38,6.38,0,0,1,1.084.663,5.422,5.422,0,0,0,1.559.892c.4.171.837.2,1.234.4.547.261,1.154.182,1.713.454.074.036.055.29.036.538-.016.206-.054.32-.1.311a14.687,14.687,0,0,1-1.609-.392Z"/><path class="cls-15" d="M1005.793,401.8c-.153-.128-.335.021-.5-.027a4.444,4.444,0,0,0-.8-.236,4.2,4.2,0,0,1-1.635-.761,20.626,20.626,0,0,1-1.764-1.162c-.35-.3-.317-.783-.472-1.139-.225-.511-.372-1.039-.581-1.561-.147-.379-.031-.782-.157-1.184a.3.3,0,0,0-.1-.161c-.105-.111.131-.16.385-.152.276.007.348.064.35.111a3.088,3.088,0,0,0,.09.657c.167.571.35,1.127.53,1.673a2.9,2.9,0,0,0,.305.834,2.967,2.967,0,0,0,.7.77c.3.234.649.367.928.628a4.086,4.086,0,0,0,1.435.713c.374.114.767.119,1.149.239.522.172,1.058.033,1.611.222.075.026.067.238.06.446-.006.172-.033.27-.073.265-.455-.048-.975-.094-1.463-.18Z"/><path class="cls-21" d="M1054.858,419.359c-.176.154-.352.315-.528.462-.279.249-.557.491-.836.719-4.434,3.643-8.81,5.19-16.7,2.932-13.039.807-24.3-4.927-24.2-10.367-1.569-4.824-.682-4.9.015-6.327-.565-.161,1.011-.337-.184-2.75-.051-.109-.117-.219-.183-.344a4.1,4.1,0,0,0,.41.051,6.637,6.637,0,0,0,4.985-1.913c-.242.315,1.106.425,2.814.535.762.051,1.6.095,2.4.161-1.019-.6.689-2.625,2.477-4.45a17.9,17.9,0,0,1,10.246-3.255,8.99,8.99,0,0,1,4.589,1.341c.175,1.994,2.03,1.811,2.594.22,1.3.777,5.109-.11,6.414,3.241-.345-1.811,1.165.975,4.148.7.044.338.491,1.445,1.063,1.254,2.338-.1,3.071.213,3.21.411,1.774,2.771,2.631,5.7,1.876,7.7C1060.794,413.208,1058.654,417.5,1054.858,419.359Z"/><path class="cls-21" d="M1016.647,393.5a4.49,4.49,0,0,1-1.217,2.346,2.285,2.285,0,0,1-.623.367,18.588,18.588,0,0,1-2.969,1.994c-1.737.11-3.261.587-4.771.7-.5.1-.7-.022-1.371-.433-.168.11-.469-.154-1.077-.271a12.558,12.558,0,0,0-2.492-.154,6.846,6.846,0,0,1-2.946-.4,3.577,3.577,0,0,1-2.338-1.261c-.3-.008-.272-.374-.477-.866a5.378,5.378,0,0,1-.894-2.375,3.554,3.554,0,0,1,.2-2.478c-.125-.4.036-.389.242-.7a5.583,5.583,0,0,1,1.832-1.224,8.827,8.827,0,0,0,1.949-.271c.125-.044.257-.1.382-.154.088-.279.3-.44.7-.9a1.37,1.37,0,0,1,1.385-.469,6.148,6.148,0,0,1,3.871-.264,8.091,8.091,0,0,1,1.363.689c.623-.037,1.238.652,1.854.865a10.446,10.446,0,0,1,2.881.139,3.812,3.812,0,0,1,3.173,1.5,14.288,14.288,0,0,0,1.312,1.555c-.176.9.1.968.051,1.253A.586.586,0,0,1,1016.647,393.5Z"/><path class="cls-22" d="M1053.494,420.54c-4.434,3.643-8.81,5.19-16.7,2.932-13.039.807-24.3-4.927-24.2-10.367-1.569-4.824-.682-4.9.015-6.327-.565-.161,1.011-.337-.184-2.75.073-.1.154-.2.227-.293a6.637,6.637,0,0,0,4.985-1.913c-.242.315,1.106.425,2.814.535-.044.161-.081.315-.117.476-.5,2.229-.154,5.067,1.92,6.027a3.846,3.846,0,0,1,.938.462c.7.55.623,1.6.858,2.456a3.23,3.23,0,0,0,2.631,2.28,6.031,6.031,0,0,1,1.979.25,3.374,3.374,0,0,1,1.253,1.437c1.312,2.17,3.335,4.157,5.856,4.465,1.342.168,2.69-.147,4.024-.074a35.355,35.355,0,0,1,4.537,1.019,20.811,20.811,0,0,0,7.52-.3C1052.4,420.752,1052.944,420.65,1053.494,420.54Z"/><path class="cls-22" d="M1015.43,395.841a2.285,2.285,0,0,1-.623.367,18.588,18.588,0,0,1-2.969,1.994c-1.737.11-3.261.587-4.771.7-.5.1-.7-.022-1.371-.433-.168.11-.469-.154-1.077-.271a12.558,12.558,0,0,0-2.492-.154,6.846,6.846,0,0,1-2.946-.4,3.577,3.577,0,0,1-2.338-1.261c-.3-.008-.272-.374-.477-.866a5.378,5.378,0,0,1-.894-2.375,3.554,3.554,0,0,1,.2-2.478c-.125-.4.036-.389.242-.7a5.583,5.583,0,0,1,1.832-1.224,8.827,8.827,0,0,0,1.949-.271c-.249.344-.556.66-.762.946a2.088,2.088,0,0,0-.535,1.9,2.618,2.618,0,0,0,.785.99c.769.7,1.531,1.393,2.3,2.09a4.722,4.722,0,0,0,1.605,1.085,7.287,7.287,0,0,0,2.331.088c2.308-.007,4.559,1.239,6.838.88a19.856,19.856,0,0,1,2.947-.616C1015.276,395.827,1015.356,395.834,1015.43,395.841Z"/><path class="cls-39" d="M1200,414.149V590H883.037c.33-.48.689-.96,1.04-1.44a415.478,415.478,0,0,1,60.075-65.736c.17-.15.33-.3.5-.44q6.853-6.121,13.929-11.953c.189-.16.379-.32.569-.47q12.479-10.291,25.468-19.784c.01-.01.03-.02.04-.03h.01c.16-.11.31-.23.47-.34q13.873-10.143,28.248-19.195c.39-.25.77-.49,1.16-.72q12.073-7.546,24.528-14.234c.55-.29,1.09-.58,1.639-.88,4.08-2.15,8.19-4.241,12.339-6.241.72-.35,1.421-.7,2.14-1.04h.01q6.015-2.882,12.139-5.532c.99-.43,1.98-.85,2.98-1.27.25-.11.51-.22.76-.32.13-.06.25-.11.38-.16.61-.26,1.23-.52,1.84-.77a2.88,2.88,0,0,1,.31-.13c3.829-1.581,7.679-3.091,11.579-4.521.46-.18.91-.34,1.37-.5q2.715-1.006,5.449-1.951,8.955-3.12,18.139-5.731h.01c.58-.16,1.17-.32,1.759-.48.551-.15,1.1-.3,1.651-.44.21-.061.429-.121.639-.171.33-.09.66-.18.99-.26a1.6,1.6,0,0,1,.21-.05,1.286,1.286,0,0,1,.19-.04c1.37-.37,2.72-.69,4.09-1.03.61-.15,1.22-.3,1.83-.44l.01-.01c.64-.15,1.28-.3,1.92-.44.34-.08.679-.16,1.02-.23a2.073,2.073,0,0,1,.36-.08h.009a.481.481,0,0,1,.17-.04c.26-.07.521-.13.79-.18.231-.06.46-.11.7-.16s.5-.11.76-.16a.319.319,0,0,1,.08-.02c1.12-.25,2.26-.49,3.38-.71.98-.21,1.95-.4,2.93-.591,2.91-.58,5.819-1.11,8.749-1.6.58-.11,1.16-.21,1.75-.29,2.32-.4,4.64-.76,6.969-1.1,8.8-1.281,17.659-2.241,26.528-2.891.64-.06,1.28-.1,1.93-.14.71-.06,1.43-.11,2.15-.15C1187.821,414.509,1193.921,414.269,1200,414.149Z"/><path class="cls-40" d="M1184.3,414.749c-.819.326-1.816,1.034-2.611,1.384a136.243,136.243,0,0,0-16.139,8.724c-2.975,1.81-5.913,3.692-8.84,5.586-8.791,5.695-18.1,11.643-28.546,12.107-6.133.233-13.231-2.281-15.006-8.137a12.051,12.051,0,0,1,.7-8.088q.164-.416.361-.832c.036-.072.06-.144.1-.216,1-.242,2-.484,2.987-.713,5.168-1.209,10.288-2.273,15.312-3.216A414.8,414.8,0,0,1,1184.3,414.749Z"/><path class="cls-40" d="M1116.161,425.057c-.772.395-1.533.8-2.292,1.233-.819.469-1.637.95-2.43,1.454a107.04,107.04,0,0,0-10.556,7.89c-1.908,1.609-3.791,3.241-5.685,4.9-5.647,4.968-11.639,10.139-19.035,11.575-4.305.807-9.613-.239-11.5-4.225a7.785,7.785,0,0,1-.589-4.276q6.584-3.132,13.24-5.855a309.681,309.681,0,0,1,34.384-11.8c.839-.18,1.678-.348,2.505-.5C1114.854,425.31,1115.514,425.183,1116.161,425.057Z"/><path class="cls-3" d="M1200,460.75v1.75a181.855,181.855,0,0,1-79.4,58.374q-3.27,1.23-6.59,2.33c-9.409,3.111-20.918,5.812-32.567,5.812-10.4,0-20.9-2.151-30.117-8.082-10.159-6.542-17.269-17.834-19.479-30.977-2.119-12.523.52-24.926,7.23-34.3.329-.46.67-.91,1.019-1.36l.62.48.23.18c-7.279,9.282-10.209,21.965-8.039,34.818s9.09,23.876,19,30.258c19.179,12.332,44.177,7.971,61.765,2.15,2.52-.84,5.03-1.73,7.5-2.681A180.815,180.815,0,0,0,1200,460.75Z"/><path class="cls-3" d="M1200,486.136v1.78c-28.117,27.206-61.495,50.022-89.572,61.194-.16.06-.31.12-.47.18-2.53,1-5.02,1.911-7.4,2.7-11.249,3.731-25.018,6.952-38.936,6.952-12.449,0-25.009-2.571-36.028-9.663-12.158-7.821-20.658-21.335-23.307-37.058-2.57-15.244.739-30.337,9.1-41.61.25-.34.52-.68.78-1.02l.38.3.629.49c-8.7,11.093-12.208,26.266-9.619,41.63s10.88,28.556,22.739,36.188c22.918,14.744,52.815,9.532,73.864,2.571,2.5-.83,5.129-1.791,7.8-2.861l.51-.21C1138.575,536.4,1171.993,513.442,1200,486.136Z"/><path class="cls-41" d="M855.608,560.025a32.53,32.53,0,0,1-7.734-.908,28.625,28.625,0,0,1-19.756-17.487l1.05-.381a27.484,27.484,0,0,0,18.972,16.783c10.914,2.668,23.833-.833,34.549-9.356,9.913-7.893,16.963-18.643,23.334-28.976,6.128-9.933,12.024-20.169,17.526-30.421q1.638-3.051,3.27-6.138c8.91-16.8,18.124-34.162,31.725-46.986l.806.772-.011.011c-13.5,12.728-22.666,30.011-31.534,46.726q-1.638,3.086-3.271,6.142c-5.514,10.273-11.421,20.528-17.559,30.48-6.425,10.417-13.536,21.259-23.59,29.265C874.835,556.35,864.9,560.025,855.608,560.025Z"/><path class="cls-41" d="M943.719,523.031c-11.834-24.206,18.373-79.318,39.226-99.958l.785.793c-10.591,10.484-23.233,29.784-31.457,48.025-10,22.174-12.678,40.162-7.551,50.649Z"/><path class="cls-41" d="M862.838,536.484a23.064,23.064,0,0,1-6.387-.875,19.378,19.378,0,0,1-11.072-8.86l.967-.556a18.249,18.249,0,0,0,10.415,8.343c8.179,2.356,18.087-.383,24.657-6.811,17.747-17.358,41.754-57.925,52.006-75.247l.479-.808.961.569-.479.809c-10.274,17.36-34.335,58.014-52.186,75.476A28.233,28.233,0,0,1,862.838,536.484Z"/><path class="cls-41" d="M959.139,510.435l-1.117-.008c.045-6.926.8-16.994,6.86-24.421,3.107-3.823,7.147-5.833,10.785-5.385a11.14,11.14,0,0,1,7.872,5.666,17.949,17.949,0,0,1,1.658,3.7l-1.061.35a16.854,16.854,0,0,0-1.555-3.473,10.038,10.038,0,0,0-7.051-5.13c-3.273-.4-6.921,1.46-9.782,4.983C959.914,493.865,959.182,503.677,959.139,510.435Z"/><rect class="cls-42" x="168.939" y="367.301" width="1.001" height="16.314" transform="translate(-242.467 371.993) rotate(-65.229)"/><rect class="cls-42" x="178.94" y="347.583" width="1.001" height="13.164" transform="translate(-217.324 368.659) rotate(-65.223)"/><rect class="cls-42" x="189.215" y="328.133" width="1.001" height="9.737" transform="translate(-192.155 365.518) rotate(-65.196)"/><polygon class="cls-42" points="210.212 302.732 210.071 302.732 209.941 302.659 201.767 297.664 202.279 296.803 202.599 296.993 210.462 301.803 210.206 302.222 210.212 302.732"/><rect class="cls-42" x="182.831" y="299.297" width="10.977" height="1.001" transform="translate(-141.748 171.741) rotate(-36.66)"/><rect class="cls-42" x="171.012" y="281.658" width="13.634" height="1.001" transform="translate(-132.962 161.139) rotate(-36.504)"/><rect class="cls-42" x="157.864" y="262.047" width="16.545" height="1.001" transform="translate(-119.991 141.455) rotate(-34.736)"/><rect class="cls-42" x="219.587" y="364.939" width="16.285" height="1.002" transform="translate(-185.675 245.009) rotate(-41.829)"/><rect class="cls-42" x="210.657" y="347.806" width="13.705" height="1.002" transform="translate(-176.854 233.827) rotate(-41.829)"/><rect class="cls-42" x="201.362" y="329.883" width="10.943" height="1.001" transform="translate(-164.15 210.782) rotate(-40.083)"/><rect class="cls-42" x="214.285" y="276.256" width="1.002" height="11.865" transform="translate(-137.97 318.613) rotate(-58.619)"/><polygon class="cls-42" points="228.62 269.844 216.672 262.542 216.933 262.125 216.928 261.616 217.082 261.616 218.165 262.293 229.141 268.989 228.62 269.844"/><path class="cls-29" d="M89.642,588.56q-.283.72-.6,1.44H87.723c.21-.47.42-.95.619-1.44,6.04-14.674,6.98-34.518-2.959-54.943-11.4-23.406-32.6-40.35-51.836-53.843a138.923,138.923,0,0,0-18.838-11.553v-.01H14.7A60.709,60.709,0,0,0,.02,463.06H0v-1.05H.02a61.377,61.377,0,0,1,14.669,5.051,139.042,139.042,0,0,1,19.448,11.873C53.485,492.5,74.8,509.551,86.3,533.157,93.9,548.76,96.942,570.415,89.642,588.56Z"/><path class="cls-29" d="M159.907,590h-1.55c-.47-.48-.95-.96-1.43-1.44A194.169,194.169,0,0,0,119.3,559.213c-1.67-1-3.44-1.951-5.2-1.681-2.319.35-3.8,2.731-4.2,4.8a18.924,18.924,0,0,0,.14,6c.049.43.1.85.15,1.27a47.824,47.824,0,0,1-1.72,18.955c-.14.48-.3.96-.46,1.44h-1.17c.16-.48.32-.96.46-1.44a46.487,46.487,0,0,0,1.79-18.825c-.05-.42-.1-.84-.16-1.26a20.187,20.187,0,0,1-.12-6.352c.49-2.52,2.26-5.251,5.119-5.691,2.12-.32,4.1.73,5.94,1.83a195.032,195.032,0,0,1,38.627,30.3Q159.2,589.28,159.907,590Z"/><path class="cls-29" d="M143.178,590h-1.52a69.944,69.944,0,0,0-11.349-9.542c-1.68-1.13-3.65-2.221-5.509-1.751a4.917,4.917,0,0,0-3.16,3.141,16.15,16.15,0,0,0-.77,4.9L120.71,590h-1.12l.17-3.3a16.923,16.923,0,0,1,.85-5.251,5.99,5.99,0,0,1,3.92-3.821c2.279-.57,4.509.65,6.4,1.911A70.7,70.7,0,0,1,143.178,590Z"/><path class="cls-43" d="M61.275,365.5a1.378,1.378,0,0,1-1.14.691,4.35,4.35,0,0,1-.52.06c-.16.01-.33.02-.51.02-.1.01-.2.01-.3.01-.27,0-.55-.01-.83-.02-.46-.02-.92-.05-1.36-.05-.14-.01-.27,0-.41,0-1.339.05-2.689.14-4.03.27a59.351,59.351,0,0,0-6.9,1.1c-.21.04-.41.09-.62.14-.15.03-.31.06-.46.1a61.389,61.389,0,0,0-8.629,2.73c-6.6,2.651-12.709,6.432-18.959,9.833a.01.01,0,0,0-.01.01A73.257,73.257,0,0,1,1.75,386.862c-.56.17-1.15.31-1.75.43V369.9c.24-.08.48-.15.73-.23,1.18-.37,2.44-.71,3.759-1.02,2.65-.64,5.56-1.17,8.68-1.62l1.3-.18.14-.02.12-.01,1.1-.15c.139-.02.29-.04.44-.05.509-.07,1.02-.13,1.54-.19,4.939-.581,10.309-1,15.948-1.351,1.27-.08,2.56-.15,3.86-.22.26-.01.519-.03.78-.04h.1c.36-.02.71-.04,1.07-.05,1.439-.07,2.889-.1,4.349-.1.45-.01.9-.01,1.36-.01.67,0,1.34,0,2.02.02.46,0,.91.01,1.37.02.82.01,1.64.05,2.46.08h.089a1.57,1.57,0,0,0,.221.01c.13.01.279.01.42.02.529.02,1.069.05,1.6.08.489.02.989.04,1.479.07.56.04,1.12.08,1.68.13q.6.03,1.2.09c.3.02.59.05.88.08a2.218,2.218,0,0,1,.37.03,1.1,1.1,0,0,1,.18.02,1.225,1.225,0,0,1,.19.02.11.11,0,0,1,.08,0C60.105,365.377,60.685,365.437,61.275,365.5Z"/><path class="cls-43" d="M99.459,373.263a2.5,2.5,0,0,1-2.122.411,25.033,25.033,0,0,0-4.154-.451,38.173,38.173,0,0,0-8.979.891c-1.672.351-3.314.791-4.946,1.282-5.976,1.832-11.691,4.436-17.6,6.459-2.323.8-5,1.482-7.138.28a5.93,5.93,0,0,1-2.692-5.447,12.326,12.326,0,0,1,2.182-5.938,14.807,14.807,0,0,1,5.4-5.417.037.037,0,0,1,.03-.01c.611.05,1.222.11,1.832.17.691.07,1.392.15,2.082.23.951.1,1.892.22,2.833.34,1.2.161,2.413.331,3.614.511.47.07.941.14,1.4.21,1.382.221,2.773.461,4.165.711.7.121,1.411.261,2.112.391.07.01.13.03.2.04.771.15,1.542.3,2.312.461,1.552.31,3.1.65,4.655,1Q92,371.04,99.459,373.263Z"/></g></g></g></svg>